<svg version="1.1" xmlns="http://www.w3.org/2000/svg" xmlns:xlink="http://www.w3.org/1999/xlink" width="480" height="53" viewBox="0,0,480,53"><g transform="translate(4.5,-346)"><g data-paper-data="{&quot;isPaintingLayer&quot;:true}" fill-rule="nonzero" stroke="none" stroke-width="0" stroke-linecap="butt" stroke-linejoin="miter" stroke-miterlimit="10" stroke-dasharray="" stroke-dashoffset="0" style="mix-blend-mode: normal"><path d="M-4.5,370.5c0,-8.56041 6.93959,-15.5 15.5,-15.5c8.56041,0 15.5,6.93959 15.5,15.5c0,8.56041 -6.93959,15.5 -15.5,15.5c-8.56041,0 -15.5,-6.93959 -15.5,-15.5z" fill="#af1a00"/><path d="M27.5,375.5c0,-8.56041 6.93959,-15.5 15.5,-15.5c8.56042,0 15.5,6.93959 15.5,15.5c0,8.56041 -6.93958,15.5 -15.5,15.5c-8.56041,0 -15.5,-6.93959 -15.5,-15.5z" fill="#af1a00"/><path d="M59.5,374.5c0,-8.56041 6.93958,-15.5 15.5,-15.5c8.56042,0 15.5,6.93959 15.5,15.5c0,8.56041 -6.93958,15.5 -15.5,15.5c-8.56042,0 -15.5,-6.93959 -15.5,-15.5z" fill="#af1a00"/><path d="M105.5,372.5c0,-8.56041 6.93958,-15.5 15.5,-15.5c8.56042,0 15.5,6.93959 15.5,15.5c0,8.56041 -6.93958,15.5 -15.5,15.5c-8.56042,0 -15.5,-6.93959 -15.5,-15.5z" fill="#af1a00"/><path d="M84.5,367.5c0,-8.56041 6.93958,-15.5 15.5,-15.5c8.56042,0 15.5,6.93959 15.5,15.5c0,8.56041 -6.93958,15.5 -15.5,15.5c-8.56042,0 -15.5,-6.93959 -15.5,-15.5z" fill="#af1a00"/><path d="M140.5,375.5c0,-8.56041 6.93958,-15.5 15.5,-15.5c8.56042,0 15.5,6.93959 15.5,15.5c0,8.56041 -6.93958,15.5 -15.5,15.5c-8.56042,0 -15.5,-6.93959 -15.5,-15.5z" fill="#af1a00"/><path d="M171.5,361.5c0,-8.56041 6.93958,-15.5 15.5,-15.5c8.56042,0 15.5,6.93959 15.5,15.5c0,8.56041 -6.93958,15.5 -15.5,15.5c-8.56042,0 -15.5,-6.93959 -15.5,-15.5z" fill="#af1a00"/><path d="M199.5,377.5c0,-8.56041 6.93958,-15.5 15.5,-15.5c8.56042,0 15.5,6.93959 15.5,15.5c0,8.56041 -6.93958,15.5 -15.5,15.5c-8.56042,0 -15.5,-6.93959 -15.5,-15.5z" fill="#af1a00"/><path d="M233.5,364.5c0,-8.56041 6.93958,-15.5 15.5,-15.5c8.56042,0 15.5,6.93959 15.5,15.5c0,8.56041 -6.93958,15.5 -15.5,15.5c-8.56042,0 -15.5,-6.93959 -15.5,-15.5z" fill="#af1a00"/><path d="M266.5,378.5c0,-8.56041 6.93958,-15.5 15.5,-15.5c8.56042,0 15.5,6.93959 15.5,15.5c0,8.56041 -6.93958,15.5 -15.5,15.5c-8.56042,0 -15.5,-6.93959 -15.5,-15.5z" fill="#af1a00"/><path d="M295.5,375.5c0,-8.56041 6.93958,-15.5 15.5,-15.5c8.56042,0 15.5,6.93959 15.5,15.5c0,8.56041 -6.93958,15.5 -15.5,15.5c-8.56042,0 -15.5,-6.93959 -15.5,-15.5z" fill="#af1a00"/><path d="M322.5,373.5c0,-8.56041 6.93958,-15.5 15.5,-15.5c8.56042,0 15.5,6.93959 15.5,15.5c0,8.56041 -6.93958,15.5 -15.5,15.5c-8.56042,0 -15.5,-6.93959 -15.5,-15.5z" fill="#af1a00"/><path d="M350.5,382.5c0,-8.56041 6.93958,-15.5 15.5,-15.5c8.56042,0 15.5,6.93959 15.5,15.5c0,8.56041 -6.93958,15.5 -15.5,15.5c-8.56042,0 -15.5,-6.93959 -15.5,-15.5z" fill="#af1a00"/><path d="M390.5,374.5c0,-8.56041 6.93958,-15.5 15.5,-15.5c8.56042,0 15.5,6.93959 15.5,15.5c0,8.56041 -6.93958,15.5 -15.5,15.5c-8.56042,0 -15.5,-6.93959 -15.5,-15.5z" fill="#af1a00"/><path d="M426.5,383.5c0,-8.56041 6.93958,-15.5 15.5,-15.5c8.56042,0 15.5,6.93959 15.5,15.5c0,8.56041 -6.93958,15.5 -15.5,15.5c-8.56042,0 -15.5,-6.93959 -15.5,-15.5z" fill="#af1a00"/><path d="M444.5,372.5c0,-8.56041 6.93958,-15.5 15.5,-15.5c8.56042,0 15.5,6.93959 15.5,15.5c0,8.56041 -6.93958,15.5 -15.5,15.5c-8.56042,0 -15.5,-6.93959 -15.5,-15.5z" fill="#af1a00"/></g></g></svg>