<svg version="1.1" xmlns="http://www.w3.org/2000/svg" xmlns:xlink="http://www.w3.org/1999/xlink" width="492" height="49" viewBox="0,0,492,49"><g transform="translate(3.5,-329)"><g data-paper-data="{&quot;isPaintingLayer&quot;:true}" fill-rule="nonzero" stroke="none" stroke-width="0" stroke-linecap="butt" stroke-linejoin="miter" stroke-miterlimit="10" stroke-dasharray="" stroke-dashoffset="0" style="mix-blend-mode: normal"><path d="M-3.5,352.5c0,-8.56041 6.93959,-15.5 15.5,-15.5c8.56041,0 15.5,6.93959 15.5,15.5c0,8.56041 -6.93959,15.5 -15.5,15.5c-8.56041,0 -15.5,-6.93959 -15.5,-15.5z" fill="#b06500"/><path d="M28.5,345.5c0,-8.56041 6.93959,-15.5 15.5,-15.5c8.56042,0 15.5,6.93959 15.5,15.5c0,8.56041 -6.93958,15.5 -15.5,15.5c-8.56041,0 -15.5,-6.93959 -15.5,-15.5z" fill="#b06500"/><path d="M53.5,350.5c0,-8.56041 6.93958,-15.5 15.5,-15.5c8.56042,0 15.5,6.93959 15.5,15.5c0,8.56041 -6.93958,15.5 -15.5,15.5c-8.56042,0 -15.5,-6.93959 -15.5,-15.5z" fill="#b06500"/><path d="M116.5,344.5c0,-8.56041 6.93958,-15.5 15.5,-15.5c8.56042,0 15.5,6.93959 15.5,15.5c0,8.56041 -6.93958,15.5 -15.5,15.5c-8.56042,0 -15.5,-6.93959 -15.5,-15.5z" fill="#b07d00"/><path d="M88.5,347.5c0,-8.56041 6.93958,-15.5 15.5,-15.5c8.56042,0 15.5,6.93959 15.5,15.5c0,8.56041 -6.93958,15.5 -15.5,15.5c-8.56042,0 -15.5,-6.93959 -15.5,-15.5z" fill="#b06500"/><path d="M146.5,355.5c0,-8.56041 6.93958,-15.5 15.5,-15.5c8.56042,0 15.5,6.93959 15.5,15.5c0,8.56041 -6.93958,15.5 -15.5,15.5c-8.56042,0 -15.5,-6.93959 -15.5,-15.5z" fill="#b07d00"/><path d="M173.5,345.5c0,-8.56041 6.93958,-15.5 15.5,-15.5c8.56042,0 15.5,6.93959 15.5,15.5c0,8.56041 -6.93958,15.5 -15.5,15.5c-8.56042,0 -15.5,-6.93959 -15.5,-15.5z" fill="#b06500"/><path d="M206.5,350.5c0,-8.56041 6.93958,-15.5 15.5,-15.5c8.56042,0 15.5,6.93959 15.5,15.5c0,8.56041 -6.93958,15.5 -15.5,15.5c-8.56042,0 -15.5,-6.93959 -15.5,-15.5z" fill="#b06500"/><path d="M239.5,346.5c0,-8.56041 6.93958,-15.5 15.5,-15.5c8.56042,0 15.5,6.93959 15.5,15.5c0,8.56041 -6.93958,15.5 -15.5,15.5c-8.56042,0 -15.5,-6.93959 -15.5,-15.5z" fill="#b07d00"/><path d="M272.5,362.5c0,-8.56041 6.93958,-15.5 15.5,-15.5c8.56042,0 15.5,6.93959 15.5,15.5c0,8.56041 -6.93958,15.5 -15.5,15.5c-8.56042,0 -15.5,-6.93959 -15.5,-15.5z" fill="#b07d00"/><path d="M299.5,346.5c0,-8.56041 6.93958,-15.5 15.5,-15.5c8.56042,0 15.5,6.93959 15.5,15.5c0,8.56041 -6.93958,15.5 -15.5,15.5c-8.56042,0 -15.5,-6.93959 -15.5,-15.5z" fill="#b07d00"/><path d="M332.5,356.5c0,-8.56041 6.93958,-15.5 15.5,-15.5c8.56042,0 15.5,6.93959 15.5,15.5c0,8.56041 -6.93958,15.5 -15.5,15.5c-8.56042,0 -15.5,-6.93959 -15.5,-15.5z" fill="#b07d00"/><path d="M362.5,354.5c0,-8.56041 6.93958,-15.5 15.5,-15.5c8.56042,0 15.5,6.93959 15.5,15.5c0,8.56041 -6.93958,15.5 -15.5,15.5c-8.56042,0 -15.5,-6.93959 -15.5,-15.5z" fill="#b07d00"/><path d="M392.5,358.5c0,-8.56041 6.93958,-15.5 15.5,-15.5c8.56042,0 15.5,6.93959 15.5,15.5c0,8.56041 -6.93958,15.5 -15.5,15.5c-8.56042,0 -15.5,-6.93959 -15.5,-15.5z" fill="#b07d00"/><path d="M426.5,355.5c0,-8.56041 6.93958,-15.5 15.5,-15.5c8.56042,0 15.5,6.93959 15.5,15.5c0,8.56041 -6.93958,15.5 -15.5,15.5c-8.56042,0 -15.5,-6.93959 -15.5,-15.5z" fill="#b07d00"/><path d="M457.5,346.5c0,-8.56041 6.93958,-15.5 15.5,-15.5c8.56042,0 15.5,6.93959 15.5,15.5c0,8.56041 -6.93958,15.5 -15.5,15.5c-8.56042,0 -15.5,-6.93959 -15.5,-15.5z" fill="#b05300"/><path d="M11.5,344.5c0,-6.35127 5.14873,-11.5 11.5,-11.5c6.35127,0 11.5,5.14873 11.5,11.5c0,6.35127 -5.14873,11.5 -11.5,11.5c-6.35127,0 -11.5,-5.14873 -11.5,-11.5z" fill="#b06500"/><path d="M36.5,357.5c0,-6.35127 5.14873,-11.5 11.5,-11.5c6.35127,0 11.5,5.14873 11.5,11.5c0,6.35127 -5.14873,11.5 -11.5,11.5c-6.35127,0 -11.5,-5.14873 -11.5,-11.5z" fill="#b06500"/><path d="M74.5,358.5c0,-6.35127 5.14873,-11.5 11.5,-11.5c6.35127,0 11.5,5.14873 11.5,11.5c0,6.35127 -5.14873,11.5 -11.5,11.5c-6.35127,0 -11.5,-5.14873 -11.5,-11.5z" fill="#b06500"/><path d="M114.5,358.5c0,-6.35127 5.14873,-11.5 11.5,-11.5c6.35127,0 11.5,5.14873 11.5,11.5c0,6.35127 -5.14873,11.5 -11.5,11.5c-6.35127,0 -11.5,-5.14873 -11.5,-11.5z" fill="#b06500"/><path d="M137.5,351.5c0,-6.35127 5.14873,-11.5 11.5,-11.5c6.35127,0 11.5,5.14873 11.5,11.5c0,6.35127 -5.14873,11.5 -11.5,11.5c-6.35127,0 -11.5,-5.14873 -11.5,-11.5z" fill="#b06500"/><path d="M171.5,363.5c0,-6.35127 5.14873,-11.5 11.5,-11.5c6.35127,0 11.5,5.14873 11.5,11.5c0,6.35127 -5.14873,11.5 -11.5,11.5c-6.35127,0 -11.5,-5.14873 -11.5,-11.5z" fill="#b06500"/><path d="M200.5,364.5c0,-6.35127 5.14873,-11.5 11.5,-11.5c6.35127,0 11.5,5.14873 11.5,11.5c0,6.35127 -5.14873,11.5 -11.5,11.5c-6.35127,0 -11.5,-5.14873 -11.5,-11.5z" fill="#b06500"/><path d="M229.5,360.5c0,-6.35127 5.14873,-11.5 11.5,-11.5c6.35127,0 11.5,5.14873 11.5,11.5c0,6.35127 -5.14873,11.5 -11.5,11.5c-6.35127,0 -11.5,-5.14873 -11.5,-11.5z" fill="#b06500"/><path d="M256.5,349.5c0,-6.35127 5.14873,-11.5 11.5,-11.5c6.35127,0 11.5,5.14873 11.5,11.5c0,6.35127 -5.14873,11.5 -11.5,11.5c-6.35127,0 -11.5,-5.14873 -11.5,-11.5z" fill="#b06500"/><path d="M313.5,360.5c0,-6.35127 5.14873,-11.5 11.5,-11.5c6.35127,0 11.5,5.14873 11.5,11.5c0,6.35127 -5.14873,11.5 -11.5,11.5c-6.35127,0 -11.5,-5.14873 -11.5,-11.5z" fill="#b06500"/><path d="M359.5,355.5c0,-6.35127 5.14873,-11.5 11.5,-11.5c6.35127,0 11.5,5.14873 11.5,11.5c0,6.35127 -5.14873,11.5 -11.5,11.5c-6.35127,0 -11.5,-5.14873 -11.5,-11.5z" fill="#b06500"/><path d="M385.5,350.5c0,-6.35127 5.14873,-11.5 11.5,-11.5c6.35127,0 11.5,5.14873 11.5,11.5c0,6.35127 -5.14873,11.5 -11.5,11.5c-6.35127,0 -11.5,-5.14873 -11.5,-11.5z" fill="#b06500"/><path d="M415.5,361.5c0,-6.35127 5.14873,-11.5 11.5,-11.5c6.35127,0 11.5,5.14873 11.5,11.5c0,6.35127 -5.14873,11.5 -11.5,11.5c-6.35127,0 -11.5,-5.14873 -11.5,-11.5z" fill="#b06500"/><path d="M447.5,359.5c0,-6.35127 5.14873,-11.5 11.5,-11.5c6.35127,0 11.5,5.14873 11.5,11.5c0,6.35127 -5.14873,11.5 -11.5,11.5c-6.35127,0 -11.5,-5.14873 -11.5,-11.5z" fill="#b06500"/></g></g></svg>