<svg version="1.1" xmlns="http://www.w3.org/2000/svg" xmlns:xlink="http://www.w3.org/1999/xlink" width="152.08495" height="97.06469" viewBox="0,0,152.08495,97.06469"><g transform="translate(-183.46118,-113.68491)"><g data-paper-data="{&quot;isPaintingLayer&quot;:true}" fill="#9e9e9e" fill-rule="nonzero" stroke="none" stroke-width="0.5" stroke-linecap="butt" stroke-linejoin="miter" stroke-miterlimit="10" stroke-dasharray="" stroke-dashoffset="0" style="mix-blend-mode: normal"><path d="M232.23607,122.09863c1.11803,2.23607 -1.11803,3.3541 -1.11803,3.3541l-2.0767,1.03673c-3.93538,1.78187 -6.1895,4.00829 -9.45637,6.66056c-4.59669,3.73191 -10.22075,7.24831 -15.33016,10.22892c-5.36283,3.12844 -11.58901,4.95249 -17.35737,7.17109c0,0 -2.33336,0.89745 -3.23081,-1.43592c-0.89745,-2.33336 1.43592,-3.23081 1.43592,-3.23081c5.50636,-2.11783 11.52868,-3.82836 16.64263,-6.82891c4.87312,-2.85925 10.2932,-6.19621 14.66984,-9.77108c3.58325,-2.92682 6.25387,-5.35371 10.54363,-7.33944l1.9233,-0.96327c0,0 2.23607,-1.11803 3.3541,1.11803z"/><path d="M330.0924,114.8485c1.36816,2.0924 -0.72424,3.46056 -0.72424,3.46056l-3.75325,2.45358c-7.85904,4.7068 -16.47278,8.26581 -24.59353,12.56365c-14.25815,7.53732 -29.70035,12.82482 -45.05833,17.88919l3.72999,-0.47991c0,0 2.48108,-0.30695 2.78804,2.17413c0.30695,2.48108 -2.17413,2.78804 -2.17413,2.78804l-3.94927,0.4658c-6.04459,2.53561 -12.10483,5.03338 -18.16164,7.53964c-2.94118,1.21704 -6.09746,1.99613 -8.83914,3.61319c-2.26658,1.33685 -3.80427,3.63681 -5.72049,5.44031c-3.641,3.42682 -7.282,6.85365 -10.923,10.28047c0,0 -1.8205,1.71341 -3.53391,-0.10709c-1.71341,-1.8205 0.10709,-3.53391 0.10709,-3.53391c3.641,-3.42682 7.282,-6.85365 10.923,-10.28047c2.13516,-2.00956 3.92008,-4.48881 6.43351,-5.99875c0.30999,-0.18623 9.0715,-3.79811 9.64119,-4.03384c5.53307,-2.28955 11.06422,-4.58347 16.60439,-6.85571c-2.37789,0.78177 -4.75173,1.56142 -7.11678,2.34651c-4.81115,1.59709 -9.56616,3.17467 -14.46539,4.48172c-3.62021,0.96582 -7.94047,1.11821 -10.53874,3.92881c0,0 -1.76777,1.76777 -3.53553,0c-1.76777,-1.76777 0,-3.53553 0,-3.53553c3.6829,-3.50597 7.95289,-3.93621 12.78596,-5.22445c4.80297,-1.28021 9.46192,-2.83024 14.17845,-4.39592c18.36929,-6.09779 37.32793,-11.82985 54.48589,-20.92148c8.00742,-4.23786 16.53823,-7.72856 24.27748,-12.38132l3.67182,-2.40146c0,0 2.0924,-1.36816 3.46056,0.72424z"/><path d="M301.37171,183.42609c0.79057,2.37171 -1.58114,3.16228 -1.58114,3.16228l-4.25658,1.41886c-7.10504,2.36819 -14.6641,4.43013 -21.49442,7.48304c-8.60281,3.84515 -16.83676,9.59582 -24.65281,14.80651c0,0 -2.08013,1.38675 -3.46688,-0.69338c-1.38675,-2.08013 0.69338,-3.46688 0.69338,-3.46688c8.03812,-5.35874 16.50138,-11.23128 25.34719,-15.19349c6.99093,-3.13137 14.71888,-5.25457 21.99241,-7.67924l4.25658,-1.41886c0,0 2.37171,-0.79057 3.16228,1.58114z"/><path d="M335.2699,144.16901c1.04765,2.2699 -1.22225,3.31754 -1.22225,3.31754c-4.5398,2.09529 -11.76122,5.42825 -16.30102,7.52355c-7.55188,3.48548 -15.16143,6.86898 -22.66366,10.45981c-8.7637,4.19461 -17.23213,9.17972 -26.13749,13.06106c-9.84167,4.28942 -20.95445,6.76704 -31.17798,10.06496c0,0 -2.37927,0.76751 -3.14678,-1.61176c-0.76751,-2.37927 1.61176,-3.14678 1.61176,-3.14678c10.09229,-3.25558 21.11894,-5.67776 30.82202,-9.93504c8.80497,-3.86323 17.18783,-8.78664 25.86251,-12.93894c7.52562,-3.60228 15.1588,-6.9967 22.73431,-10.49309c4.5398,-2.09529 9.07959,-4.19058 13.61939,-6.28587l2.68162,-1.23767c0,0 2.2699,-1.04765 3.31754,1.22225z"/></g></g></svg>