<svg version="1.1" xmlns="http://www.w3.org/2000/svg" xmlns:xlink="http://www.w3.org/1999/xlink" width="498" height="123" viewBox="0,0,498,123"><g transform="translate(7.5,-273)"><g data-paper-data="{&quot;isPaintingLayer&quot;:true}" fill-rule="nonzero" stroke="none" stroke-width="0" stroke-linecap="butt" stroke-linejoin="miter" stroke-miterlimit="10" stroke-dasharray="" stroke-dashoffset="0" style="mix-blend-mode: normal"><path d="M-3.5,309.5c0,-8.56041 6.93959,-15.5 15.5,-15.5c8.56041,0 15.5,6.93959 15.5,15.5c0,8.56041 -6.93959,15.5 -15.5,15.5c-8.56041,0 -15.5,-6.93959 -15.5,-15.5z" fill="#b06500"/><path d="M23.5,311.5c0,-8.56041 6.93959,-15.5 15.5,-15.5c8.56042,0 15.5,6.93959 15.5,15.5c0,8.56041 -6.93958,15.5 -15.5,15.5c-8.56041,0 -15.5,-6.93959 -15.5,-15.5z" fill="#b06500"/><path d="M42.5,297.5c0,-8.56041 6.93958,-15.5 15.5,-15.5c8.56042,0 15.5,6.93959 15.5,15.5c0,8.56041 -6.93958,15.5 -15.5,15.5c-8.56042,0 -15.5,-6.93959 -15.5,-15.5z" fill="#b06500"/><path d="M94.5,319.5c0,-8.56041 6.93958,-15.5 15.5,-15.5c8.56042,0 15.5,6.93959 15.5,15.5c0,8.56041 -6.93958,15.5 -15.5,15.5c-8.56042,0 -15.5,-6.93959 -15.5,-15.5z" fill="#b07d00"/><path d="M64.5,305.5c0,-8.56041 6.93958,-15.5 15.5,-15.5c8.56042,0 15.5,6.93959 15.5,15.5c0,8.56041 -6.93958,15.5 -15.5,15.5c-8.56042,0 -15.5,-6.93959 -15.5,-15.5z" fill="#b06500"/><path d="M146.5,316.5c0,-8.56041 6.93958,-15.5 15.5,-15.5c8.56042,0 15.5,6.93959 15.5,15.5c0,8.56041 -6.93958,15.5 -15.5,15.5c-8.56042,0 -15.5,-6.93959 -15.5,-15.5z" fill="#b07d00"/><path d="M155.5,305.5c0,-8.56041 6.93958,-15.5 15.5,-15.5c8.56042,0 15.5,6.93959 15.5,15.5c0,8.56041 -6.93958,15.5 -15.5,15.5c-8.56042,0 -15.5,-6.93959 -15.5,-15.5z" fill="#b06500"/><path d="M203.5,305.5c0,-8.56041 6.93958,-15.5 15.5,-15.5c8.56042,0 15.5,6.93959 15.5,15.5c0,8.56041 -6.93958,15.5 -15.5,15.5c-8.56042,0 -15.5,-6.93959 -15.5,-15.5z" fill="#b06500"/><path d="M243.5,306.5c0,-8.56041 6.93958,-15.5 15.5,-15.5c8.56042,0 15.5,6.93959 15.5,15.5c0,8.56041 -6.93958,15.5 -15.5,15.5c-8.56042,0 -15.5,-6.93959 -15.5,-15.5z" fill="#b07d00"/><path d="M277.5,323.5c0,-8.56041 6.93958,-15.5 15.5,-15.5c8.56042,0 15.5,6.93959 15.5,15.5c0,8.56041 -6.93958,15.5 -15.5,15.5c-8.56042,0 -15.5,-6.93959 -15.5,-15.5z" fill="#b07d00"/><path d="M287.5,307.5c0,-8.56041 6.93958,-15.5 15.5,-15.5c8.56042,0 15.5,6.93959 15.5,15.5c0,8.56041 -6.93958,15.5 -15.5,15.5c-8.56042,0 -15.5,-6.93959 -15.5,-15.5z" fill="#b07d00"/><path d="M333.5,320.5c0,-8.56041 6.93958,-15.5 15.5,-15.5c8.56042,0 15.5,6.93959 15.5,15.5c0,8.56041 -6.93958,15.5 -15.5,15.5c-8.56042,0 -15.5,-6.93959 -15.5,-15.5z" fill="#b07d00"/><path d="M356.5,324.5c0,-8.56041 6.93958,-15.5 15.5,-15.5c8.56042,0 15.5,6.93959 15.5,15.5c0,8.56041 -6.93958,15.5 -15.5,15.5c-8.56042,0 -15.5,-6.93959 -15.5,-15.5z" fill="#b07d00"/><path d="M392.5,319.5c0,-8.56041 6.93958,-15.5 15.5,-15.5c8.56042,0 15.5,6.93959 15.5,15.5c0,8.56041 -6.93958,15.5 -15.5,15.5c-8.56042,0 -15.5,-6.93959 -15.5,-15.5z" fill="#b07d00"/><path d="M421.5,309.5c0,-8.56041 6.93958,-15.5 15.5,-15.5c8.56042,0 15.5,6.93959 15.5,15.5c0,8.56041 -6.93958,15.5 -15.5,15.5c-8.56042,0 -15.5,-6.93959 -15.5,-15.5z" fill="#b07d00"/><path d="M457.0183,306.47474c-2.19519,-8.27416 2.73279,-16.76125 11.00697,-18.95644c8.27417,-2.19519 16.76126,2.7328 18.95644,11.00697c2.19519,8.27416 -2.73279,16.76125 -11.00697,18.95644c-8.27417,2.19519 -16.76126,-2.7328 -18.95644,-11.00697z" fill="#b05300"/><path d="M15.5,284.5c0,-6.35127 5.14873,-11.5 11.5,-11.5c6.35127,0 11.5,5.14873 11.5,11.5c0,6.35127 -5.14873,11.5 -11.5,11.5c-6.35127,0 -11.5,-5.14873 -11.5,-11.5z" fill="#b06500"/><path d="M35.5,321.5c0,-6.35127 5.14873,-11.5 11.5,-11.5c6.35127,0 11.5,5.14873 11.5,11.5c0,6.35127 -5.14873,11.5 -11.5,11.5c-6.35127,0 -11.5,-5.14873 -11.5,-11.5z" fill="#b06500"/><path d="M74.5,319.5c0,-6.35127 5.14873,-11.5 11.5,-11.5c6.35127,0 11.5,5.14873 11.5,11.5c0,6.35127 -5.14873,11.5 -11.5,11.5c-6.35127,0 -11.5,-5.14873 -11.5,-11.5z" fill="#b06500"/><path d="M114.5,319.5c0,-6.35127 5.14873,-11.5 11.5,-11.5c6.35127,0 11.5,5.14873 11.5,11.5c0,6.35127 -5.14873,11.5 -11.5,11.5c-6.35127,0 -11.5,-5.14873 -11.5,-11.5z" fill="#b06500"/><path d="M131.5,307.5c0,-6.35127 5.14873,-11.5 11.5,-11.5c6.35127,0 11.5,5.14873 11.5,11.5c0,6.35127 -5.14873,11.5 -11.5,11.5c-6.35127,0 -11.5,-5.14873 -11.5,-11.5z" fill="#b06500"/><path d="M171.5,324.5c0,-6.35127 5.14873,-11.5 11.5,-11.5c6.35127,0 11.5,5.14873 11.5,11.5c0,6.35127 -5.14873,11.5 -11.5,11.5c-6.35127,0 -11.5,-5.14873 -11.5,-11.5z" fill="#b06500"/><path d="M200.5,325.5c0,-6.35127 5.14873,-11.5 11.5,-11.5c6.35127,0 11.5,5.14873 11.5,11.5c0,6.35127 -5.14873,11.5 -11.5,11.5c-6.35127,0 -11.5,-5.14873 -11.5,-11.5z" fill="#b06500"/><path d="M227.5,319.5c0,-6.35127 5.14873,-11.5 11.5,-11.5c6.35127,0 11.5,5.14873 11.5,11.5c0,6.35127 -5.14873,11.5 -11.5,11.5c-6.35127,0 -11.5,-5.14873 -11.5,-11.5z" fill="#b06500"/><path d="M233.5,309.5c0,-6.35127 5.14873,-11.5 11.5,-11.5c6.35127,0 11.5,5.14873 11.5,11.5c0,6.35127 -5.14873,11.5 -11.5,11.5c-6.35127,0 -11.5,-5.14873 -11.5,-11.5z" fill="#b06500"/><path d="M313.5,321.5c0,-6.35127 5.14873,-11.5 11.5,-11.5c6.35127,0 11.5,5.14873 11.5,11.5c0,6.35127 -5.14873,11.5 -11.5,11.5c-6.35127,0 -11.5,-5.14873 -11.5,-11.5z" fill="#b06500"/><path d="M361.5,316.5c0,-6.35127 5.14873,-11.5 11.5,-11.5c6.35127,0 11.5,5.14873 11.5,11.5c0,6.35127 -5.14873,11.5 -11.5,11.5c-6.35127,0 -11.5,-5.14873 -11.5,-11.5z" fill="#b06500"/><path d="M398.5,302.5c0,-6.35127 5.14873,-11.5 11.5,-11.5c6.35127,0 11.5,5.14873 11.5,11.5c0,6.35127 -5.14873,11.5 -11.5,11.5c-6.35127,0 -11.5,-5.14873 -11.5,-11.5z" fill="#b06500"/><path d="M394.5,322.5c0,-6.35127 5.14873,-11.5 11.5,-11.5c6.35127,0 11.5,5.14873 11.5,11.5c0,6.35127 -5.14873,11.5 -11.5,11.5c-6.35127,0 -11.5,-5.14873 -11.5,-11.5z" fill="#b06500"/><path d="M444.5,322.5c0,-6.35127 5.14873,-11.5 11.5,-11.5c6.35127,0 11.5,5.14873 11.5,11.5c0,6.35127 -5.14873,11.5 -11.5,11.5c-6.35127,0 -11.5,-5.14873 -11.5,-11.5z" fill="#b06500"/><path d="M487.5,337.5c0,8.56041 -6.93959,15.5 -15.5,15.5c-8.56041,0 -15.5,-6.93959 -15.5,-15.5c0,-8.56041 6.93959,-15.5 15.5,-15.5c8.56041,0 15.5,6.93959 15.5,15.5z" data-paper-data="{&quot;index&quot;:null}" fill="#b06500"/><path d="M455.5,344.5c0,8.56041 -6.93959,15.5 -15.5,15.5c-8.56042,0 -15.5,-6.93959 -15.5,-15.5c0,-8.56041 6.93958,-15.5 15.5,-15.5c8.56041,0 15.5,6.93959 15.5,15.5z" data-paper-data="{&quot;index&quot;:null}" fill="#b06500"/><path d="M395.5,319.5c0,8.56041 -6.93958,15.5 -15.5,15.5c-8.56042,0 -15.5,-6.93959 -15.5,-15.5c0,-8.56041 6.93958,-15.5 15.5,-15.5c8.56042,0 15.5,6.93959 15.5,15.5z" data-paper-data="{&quot;index&quot;:null}" fill="#b06500"/><path d="M367.5,345.5c0,8.56041 -6.93958,15.5 -15.5,15.5c-8.56042,0 -15.5,-6.93959 -15.5,-15.5c0,-8.56041 6.93958,-15.5 15.5,-15.5c8.56042,0 15.5,6.93959 15.5,15.5z" data-paper-data="{&quot;index&quot;:null}" fill="#b07d00"/><path d="M397.5,339.5c0,8.56041 -6.93958,15.5 -15.5,15.5c-8.56042,0 -15.5,-6.93959 -15.5,-15.5c0,-8.56041 6.93958,-15.5 15.5,-15.5c8.56042,0 15.5,6.93959 15.5,15.5z" data-paper-data="{&quot;index&quot;:null}" fill="#b06500"/><path d="M337.5,332.5c0,8.56041 -6.93958,15.5 -15.5,15.5c-8.56042,0 -15.5,-6.93959 -15.5,-15.5c0,-8.56041 6.93958,-15.5 15.5,-15.5c8.56042,0 15.5,6.93959 15.5,15.5z" data-paper-data="{&quot;index&quot;:null}" fill="#b07d00"/><path d="M310.5,344.5c0,8.56041 -6.93958,15.5 -15.5,15.5c-8.56042,0 -15.5,-6.93959 -15.5,-15.5c0,-8.56041 6.93958,-15.5 15.5,-15.5c8.56042,0 15.5,6.93959 15.5,15.5z" data-paper-data="{&quot;index&quot;:null}" fill="#b06500"/><path d="M277.5,339.5c0,8.56041 -6.93958,15.5 -15.5,15.5c-8.56042,0 -15.5,-6.93959 -15.5,-15.5c0,-8.56041 6.93958,-15.5 15.5,-15.5c8.56042,0 15.5,6.93959 15.5,15.5z" data-paper-data="{&quot;index&quot;:null}" fill="#b06500"/><path d="M244.5,343.5c0,8.56041 -6.93958,15.5 -15.5,15.5c-8.56042,0 -15.5,-6.93959 -15.5,-15.5c0,-8.56041 6.93958,-15.5 15.5,-15.5c8.56042,0 15.5,6.93959 15.5,15.5z" data-paper-data="{&quot;index&quot;:null}" fill="#b07d00"/><path d="M200.5,327.5c0,8.56041 -6.93958,15.5 -15.5,15.5c-8.56042,0 -15.5,-6.93959 -15.5,-15.5c0,-8.56041 6.93958,-15.5 15.5,-15.5c8.56042,0 15.5,6.93959 15.5,15.5z" data-paper-data="{&quot;index&quot;:null}" fill="#b07d00"/><path d="M184.5,343.5c0,8.56041 -6.93958,15.5 -15.5,15.5c-8.56042,0 -15.5,-6.93959 -15.5,-15.5c0,-8.56041 6.93958,-15.5 15.5,-15.5c8.56042,0 15.5,6.93959 15.5,15.5z" data-paper-data="{&quot;index&quot;:null}" fill="#b07d00"/><path d="M143.5,336.5c0,8.56041 -6.93958,15.5 -15.5,15.5c-8.56042,0 -15.5,-6.93959 -15.5,-15.5c0,-8.56041 6.93958,-15.5 15.5,-15.5c8.56042,0 15.5,6.93959 15.5,15.5z" data-paper-data="{&quot;index&quot;:null}" fill="#b07d00"/><path d="M121.5,335.5c0,8.56041 -6.93958,15.5 -15.5,15.5c-8.56042,0 -15.5,-6.93959 -15.5,-15.5c0,-8.56041 6.93958,-15.5 15.5,-15.5c8.56042,0 15.5,6.93959 15.5,15.5z" data-paper-data="{&quot;index&quot;:null}" fill="#b07d00"/><path d="M91.5,331.5c0,8.56041 -6.93958,15.5 -15.5,15.5c-8.56042,0 -15.5,-6.93959 -15.5,-15.5c0,-8.56041 6.93958,-15.5 15.5,-15.5c8.56042,0 15.5,6.93959 15.5,15.5z" data-paper-data="{&quot;index&quot;:null}" fill="#b07d00"/><path d="M57.5,334.5c0,8.56041 -6.93958,15.5 -15.5,15.5c-8.56042,0 -15.5,-6.93959 -15.5,-15.5c0,-8.56041 6.93958,-15.5 15.5,-15.5c8.56042,0 15.5,6.93959 15.5,15.5z" data-paper-data="{&quot;index&quot;:null}" fill="#b07d00"/><path d="M26.5,343.5c0,8.56041 -6.93958,15.5 -15.5,15.5c-8.56042,0 -15.5,-6.93959 -15.5,-15.5c0,-8.56041 6.93958,-15.5 15.5,-15.5c8.56042,0 15.5,6.93959 15.5,15.5z" data-paper-data="{&quot;index&quot;:null}" fill="#b05300"/><path d="M472.5,345.5c0,6.35127 -5.14873,11.5 -11.5,11.5c-6.35127,0 -11.5,-5.14873 -11.5,-11.5c0,-6.35127 5.14873,-11.5 11.5,-11.5c6.35127,0 11.5,5.14873 11.5,11.5z" data-paper-data="{&quot;index&quot;:null}" fill="#b06500"/><path d="M447.5,332.5c0,6.35127 -5.14873,11.5 -11.5,11.5c-6.35127,0 -11.5,-5.14873 -11.5,-11.5c0,-6.35127 5.14873,-11.5 11.5,-11.5c6.35127,0 11.5,5.14873 11.5,11.5z" data-paper-data="{&quot;index&quot;:null}" fill="#b06500"/><path d="M409.5,331.5c0,6.35127 -5.14873,11.5 -11.5,11.5c-6.35127,0 -11.5,-5.14873 -11.5,-11.5c0,-6.35127 5.14873,-11.5 11.5,-11.5c6.35127,0 11.5,5.14873 11.5,11.5z" data-paper-data="{&quot;index&quot;:null}" fill="#b06500"/><path d="M363.5,331.5c0,6.35127 -5.14873,11.5 -11.5,11.5c-6.35127,0 -11.5,-5.14873 -11.5,-11.5c0,-6.35127 5.14873,-11.5 11.5,-11.5c6.35127,0 11.5,5.14873 11.5,11.5z" data-paper-data="{&quot;index&quot;:null}" fill="#b06500"/><path d="M346.5,338.5c0,6.35127 -5.14873,11.5 -11.5,11.5c-6.35127,0 -11.5,-5.14873 -11.5,-11.5c0,-6.35127 5.14873,-11.5 11.5,-11.5c6.35127,0 11.5,5.14873 11.5,11.5z" data-paper-data="{&quot;index&quot;:null}" fill="#b06500"/><path d="M304.5,326.5c0,6.35127 -5.14873,11.5 -11.5,11.5c-6.35127,0 -11.5,-5.14873 -11.5,-11.5c0,-6.35127 5.14873,-11.5 11.5,-11.5c6.35127,0 11.5,5.14873 11.5,11.5z" data-paper-data="{&quot;index&quot;:null}" fill="#b06500"/><path d="M283.5,328.5c0,6.35127 -5.14873,11.5 -11.5,11.5c-6.35127,0 -11.5,-5.14873 -11.5,-11.5c0,-6.35127 5.14873,-11.5 11.5,-11.5c6.35127,0 11.5,5.14873 11.5,11.5z" data-paper-data="{&quot;index&quot;:null}" fill="#b06500"/><path d="M210.5,308.5c0,6.35127 -5.14873,11.5 -11.5,11.5c-6.35127,0 -11.5,-5.14873 -11.5,-11.5c0,-6.35127 5.14873,-11.5 11.5,-11.5c6.35127,0 11.5,5.14873 11.5,11.5z" data-paper-data="{&quot;index&quot;:null}" fill="#b06500"/><path d="M227.5,335.5c0,6.35127 -5.14873,11.5 -11.5,11.5c-6.35127,0 -11.5,-5.14873 -11.5,-11.5c0,-6.35127 5.14873,-11.5 11.5,-11.5c6.35127,0 11.5,5.14873 11.5,11.5z" data-paper-data="{&quot;index&quot;:null}" fill="#b06500"/><path d="M159.5,322.5c0,6.35127 -5.14873,11.5 -11.5,11.5c-6.35127,0 -11.5,-5.14873 -11.5,-11.5c0,-6.35127 5.14873,-11.5 11.5,-11.5c6.35127,0 11.5,5.14873 11.5,11.5z" data-paper-data="{&quot;index&quot;:null}" fill="#b06500"/><path d="M117.5,318.5c0,6.35127 -5.14873,11.5 -11.5,11.5c-6.35127,0 -11.5,-5.14873 -11.5,-11.5c0,-6.35127 5.14873,-11.5 11.5,-11.5c6.35127,0 11.5,5.14873 11.5,11.5z" data-paper-data="{&quot;index&quot;:null}" fill="#b06500"/><path d="M98.5,339.5c0,6.35127 -5.14873,11.5 -11.5,11.5c-6.35127,0 -11.5,-5.14873 -11.5,-11.5c0,-6.35127 5.14873,-11.5 11.5,-11.5c6.35127,0 11.5,5.14873 11.5,11.5z" data-paper-data="{&quot;index&quot;:null}" fill="#b06500"/><path d="M68.5,320.5c0,6.35127 -5.14873,11.5 -11.5,11.5c-6.35127,0 -11.5,-5.14873 -11.5,-11.5c0,-6.35127 5.14873,-11.5 11.5,-11.5c6.35127,0 11.5,5.14873 11.5,11.5z" data-paper-data="{&quot;index&quot;:null}" fill="#b06500"/><path d="M36.5,330.5c0,6.35127 -5.14873,11.5 -11.5,11.5c-6.35127,0 -11.5,-5.14873 -11.5,-11.5c0,-6.35127 5.14873,-11.5 11.5,-11.5c6.35127,0 11.5,5.14873 11.5,11.5z" data-paper-data="{&quot;index&quot;:null}" fill="#b06500"/><path d="M484.5,347.5c0,8.56041 -6.93959,15.5 -15.5,15.5c-8.56041,0 -15.5,-6.93959 -15.5,-15.5c0,-8.56041 6.93959,-15.5 15.5,-15.5c8.56041,0 15.5,6.93959 15.5,15.5z" data-paper-data="{&quot;index&quot;:null}" fill="#b06500"/><path d="M452.5,354.5c0,8.56041 -6.93959,15.5 -15.5,15.5c-8.56042,0 -15.5,-6.93959 -15.5,-15.5c0,-8.56041 6.93958,-15.5 15.5,-15.5c8.56041,0 15.5,6.93959 15.5,15.5z" data-paper-data="{&quot;index&quot;:null}" fill="#b06500"/><path d="M427.5,349.5c0,8.56041 -6.93958,15.5 -15.5,15.5c-8.56042,0 -15.5,-6.93959 -15.5,-15.5c0,-8.56041 6.93958,-15.5 15.5,-15.5c8.56042,0 15.5,6.93959 15.5,15.5z" data-paper-data="{&quot;index&quot;:null}" fill="#b06500"/><path d="M364.5,355.5c0,8.56041 -6.93958,15.5 -15.5,15.5c-8.56042,0 -15.5,-6.93959 -15.5,-15.5c0,-8.56041 6.93958,-15.5 15.5,-15.5c8.56042,0 15.5,6.93959 15.5,15.5z" data-paper-data="{&quot;index&quot;:null}" fill="#b07d00"/><path d="M392.5,340.5c0,8.56041 -6.93958,15.5 -15.5,15.5c-8.56042,0 -15.5,-6.93959 -15.5,-15.5c0,-8.56041 6.93958,-15.5 15.5,-15.5c8.56042,0 15.5,6.93959 15.5,15.5z" data-paper-data="{&quot;index&quot;:null}" fill="#b06500"/><path d="M334.5,344.5c0,8.56041 -6.93958,15.5 -15.5,15.5c-8.56042,0 -15.5,-6.93959 -15.5,-15.5c0,-8.56041 6.93958,-15.5 15.5,-15.5c8.56042,0 15.5,6.93959 15.5,15.5z" data-paper-data="{&quot;index&quot;:null}" fill="#b07d00"/><path d="M328.5,349.5c0,8.56041 -6.93958,15.5 -15.5,15.5c-8.56042,0 -15.5,-6.93959 -15.5,-15.5c0,-8.56041 6.93958,-15.5 15.5,-15.5c8.56042,0 15.5,6.93959 15.5,15.5z" data-paper-data="{&quot;index&quot;:null}" fill="#b06500"/><path d="M274.5,349.5c0,8.56041 -6.93958,15.5 -15.5,15.5c-8.56042,0 -15.5,-6.93959 -15.5,-15.5c0,-8.56041 6.93958,-15.5 15.5,-15.5c8.56042,0 15.5,6.93959 15.5,15.5z" data-paper-data="{&quot;index&quot;:null}" fill="#b06500"/><path d="M241.5,353.5c0,8.56041 -6.93958,15.5 -15.5,15.5c-8.56042,0 -15.5,-6.93959 -15.5,-15.5c0,-8.56041 6.93958,-15.5 15.5,-15.5c8.56042,0 15.5,6.93959 15.5,15.5z" data-paper-data="{&quot;index&quot;:null}" fill="#b07d00"/><path d="M208.5,337.5c0,8.56041 -6.93958,15.5 -15.5,15.5c-8.56042,0 -15.5,-6.93959 -15.5,-15.5c0,-8.56041 6.93958,-15.5 15.5,-15.5c8.56042,0 15.5,6.93959 15.5,15.5z" data-paper-data="{&quot;index&quot;:null}" fill="#b07d00"/><path d="M181.5,353.5c0,8.56041 -6.93958,15.5 -15.5,15.5c-8.56042,0 -15.5,-6.93959 -15.5,-15.5c0,-8.56041 6.93958,-15.5 15.5,-15.5c8.56042,0 15.5,6.93959 15.5,15.5z" data-paper-data="{&quot;index&quot;:null}" fill="#b07d00"/><path d="M148.5,343.5c0,8.56041 -6.93958,15.5 -15.5,15.5c-8.56042,0 -15.5,-6.93959 -15.5,-15.5c0,-8.56041 6.93958,-15.5 15.5,-15.5c8.56042,0 15.5,6.93959 15.5,15.5z" data-paper-data="{&quot;index&quot;:null}" fill="#b07d00"/><path d="M118.5,345.5c0,8.56041 -6.93958,15.5 -15.5,15.5c-8.56042,0 -15.5,-6.93959 -15.5,-15.5c0,-8.56041 6.93958,-15.5 15.5,-15.5c8.56042,0 15.5,6.93959 15.5,15.5z" data-paper-data="{&quot;index&quot;:null}" fill="#b07d00"/><path d="M93.5,338.5c0,8.56041 -6.93958,15.5 -15.5,15.5c-8.56042,0 -15.5,-6.93959 -15.5,-15.5c0,-8.56041 6.93958,-15.5 15.5,-15.5c8.56042,0 15.5,6.93959 15.5,15.5z" data-paper-data="{&quot;index&quot;:null}" fill="#b07d00"/><path d="M54.5,344.5c0,8.56041 -6.93958,15.5 -15.5,15.5c-8.56042,0 -15.5,-6.93959 -15.5,-15.5c0,-8.56041 6.93958,-15.5 15.5,-15.5c8.56042,0 15.5,6.93959 15.5,15.5z" data-paper-data="{&quot;index&quot;:null}" fill="#b07d00"/><path d="M23.5,353.5c0,8.56041 -6.93958,15.5 -15.5,15.5c-8.56042,0 -15.5,-6.93959 -15.5,-15.5c0,-8.56041 6.93958,-15.5 15.5,-15.5c8.56042,0 15.5,6.93959 15.5,15.5z" data-paper-data="{&quot;index&quot;:null}" fill="#b05300"/><path d="M469.5,355.5c0,6.35127 -5.14873,11.5 -11.5,11.5c-6.35127,0 -11.5,-5.14873 -11.5,-11.5c0,-6.35127 5.14873,-11.5 11.5,-11.5c6.35127,0 11.5,5.14873 11.5,11.5z" data-paper-data="{&quot;index&quot;:null}" fill="#b06500"/><path d="M434.5,331.5c0,6.90355 -5.14873,12.5 -11.5,12.5c-6.35127,0 -11.5,-5.59645 -11.5,-12.5c0,-6.90355 5.14873,-12.5 11.5,-12.5c6.35127,0 11.5,5.59645 11.5,12.5z" data-paper-data="{&quot;index&quot;:null}" fill="#b06500"/><path d="M406.5,341.5c0,6.35127 -5.14873,11.5 -11.5,11.5c-6.35127,0 -11.5,-5.14873 -11.5,-11.5c0,-6.35127 5.14873,-11.5 11.5,-11.5c6.35127,0 11.5,5.14873 11.5,11.5z" data-paper-data="{&quot;index&quot;:null}" fill="#b06500"/><path d="M366.5,341.5c0,6.35127 -5.14873,11.5 -11.5,11.5c-6.35127,0 -11.5,-5.14873 -11.5,-11.5c0,-6.35127 5.14873,-11.5 11.5,-11.5c6.35127,0 11.5,5.14873 11.5,11.5z" data-paper-data="{&quot;index&quot;:null}" fill="#b06500"/><path d="M343.5,335.5c0,6.35127 -5.14873,11.5 -11.5,11.5c-6.35127,0 -11.5,-5.14873 -11.5,-11.5c0,-6.35127 5.14873,-11.5 11.5,-11.5c6.35127,0 11.5,5.14873 11.5,11.5z" data-paper-data="{&quot;index&quot;:null}" fill="#b06500"/><path d="M309.5,336.5c0,6.35127 -5.14873,11.5 -11.5,11.5c-6.35127,0 -11.5,-5.14873 -11.5,-11.5c0,-6.35127 5.14873,-11.5 11.5,-11.5c6.35127,0 11.5,5.14873 11.5,11.5z" data-paper-data="{&quot;index&quot;:null}" fill="#b06500"/><path d="M280.5,335.5c0,6.35127 -5.14873,11.5 -11.5,11.5c-6.35127,0 -11.5,-5.14873 -11.5,-11.5c0,-6.35127 5.14873,-11.5 11.5,-11.5c6.35127,0 11.5,5.14873 11.5,11.5z" data-paper-data="{&quot;index&quot;:null}" fill="#b06500"/><path d="M251.5,339.5c0,6.35127 -5.14873,11.5 -11.5,11.5c-6.35127,0 -11.5,-5.14873 -11.5,-11.5c0,-6.35127 5.14873,-11.5 11.5,-11.5c6.35127,0 11.5,5.14873 11.5,11.5z" data-paper-data="{&quot;index&quot;:null}" fill="#b06500"/><path d="M224.5,350.5c0,6.35127 -5.14873,11.5 -11.5,11.5c-6.35127,0 -11.5,-5.14873 -11.5,-11.5c0,-6.35127 5.14873,-11.5 11.5,-11.5c6.35127,0 11.5,5.14873 11.5,11.5z" data-paper-data="{&quot;index&quot;:null}" fill="#b06500"/><path d="M142.5,315.5c0,6.35127 -5.14873,11.5 -11.5,11.5c-6.35127,0 -11.5,-5.14873 -11.5,-11.5c0,-6.35127 5.14873,-11.5 11.5,-11.5c6.35127,0 11.5,5.14873 11.5,11.5z" data-paper-data="{&quot;index&quot;:null}" fill="#b06500"/><path d="M120.5,323.5c0,6.35127 -5.14873,11.5 -11.5,11.5c-6.35127,0 -11.5,-5.14873 -11.5,-11.5c0,-6.35127 5.14873,-11.5 11.5,-11.5c6.35127,0 11.5,5.14873 11.5,11.5z" data-paper-data="{&quot;index&quot;:null}" fill="#b06500"/><path d="M110.5,310.5c0,6.35127 -5.14873,11.5 -11.5,11.5c-6.35127,0 -11.5,-5.14873 -11.5,-11.5c0,-6.35127 5.14873,-11.5 11.5,-11.5c6.35127,0 11.5,5.14873 11.5,11.5z" data-paper-data="{&quot;index&quot;:null}" fill="#b06500"/><path d="M84.5,317.5c0,6.35127 -5.14873,11.5 -11.5,11.5c-6.35127,0 -11.5,-5.14873 -11.5,-11.5c0,-6.35127 5.14873,-11.5 11.5,-11.5c6.35127,0 11.5,5.14873 11.5,11.5z" data-paper-data="{&quot;index&quot;:null}" fill="#b06500"/><path d="M33.5,340.5c0,6.35127 -5.14873,11.5 -11.5,11.5c-6.35127,0 -11.5,-5.14873 -11.5,-11.5c0,-6.35127 5.14873,-11.5 11.5,-11.5c6.35127,0 11.5,5.14873 11.5,11.5z" data-paper-data="{&quot;index&quot;:null}" fill="#b06500"/><path d="M130.5,307.5c0,6.35127 -5.14873,11.5 -11.5,11.5c-6.35127,0 -11.5,-5.14873 -11.5,-11.5c0,-6.35127 5.14873,-11.5 11.5,-11.5c6.35127,0 11.5,5.14873 11.5,11.5z" data-paper-data="{&quot;index&quot;:null}" fill="#b06500"/><path d="M199.5,311.5c0,6.35127 -5.14873,11.5 -11.5,11.5c-6.35127,0 -11.5,-5.14873 -11.5,-11.5c0,-6.35127 5.14873,-11.5 11.5,-11.5c6.35127,0 11.5,5.14873 11.5,11.5z" data-paper-data="{&quot;index&quot;:null}" fill="#b06500"/><path d="M174.5,311.5c0,6.35127 -5.14873,11.5 -11.5,11.5c-6.35127,0 -11.5,-5.14873 -11.5,-11.5c0,-6.35127 5.14873,-11.5 11.5,-11.5c6.35127,0 11.5,5.14873 11.5,11.5z" data-paper-data="{&quot;index&quot;:null}" fill="#b06500"/><path d="M235.5,331.5c0,6.35127 -5.14873,11.5 -11.5,11.5c-6.35127,0 -11.5,-5.14873 -11.5,-11.5c0,-6.35127 5.14873,-11.5 11.5,-11.5c6.35127,0 11.5,5.14873 11.5,11.5z" data-paper-data="{&quot;index&quot;:null}" fill="#b06500"/><path d="M268.5,324.5c0,6.35127 -5.14873,11.5 -11.5,11.5c-6.35127,0 -11.5,-5.14873 -11.5,-11.5c0,-6.35127 5.14873,-11.5 11.5,-11.5c6.35127,0 11.5,5.14873 11.5,11.5z" data-paper-data="{&quot;index&quot;:null}" fill="#b06500"/><path d="M286.5,309.5c0,6.35127 -5.14873,11.5 -11.5,11.5c-6.35127,0 -11.5,-5.14873 -11.5,-11.5c0,-6.35127 5.14873,-11.5 11.5,-11.5c6.35127,0 11.5,5.14873 11.5,11.5z" data-paper-data="{&quot;index&quot;:null}" fill="#b06500"/><path d="M324.5,322.5c0,6.35127 -5.14873,11.5 -11.5,11.5c-6.35127,0 -11.5,-5.14873 -11.5,-11.5c0,-6.35127 5.14873,-11.5 11.5,-11.5c6.35127,0 11.5,5.14873 11.5,11.5z" data-paper-data="{&quot;index&quot;:null}" fill="#b06500"/><path d="M340.5,302.5c0,6.35127 -5.14873,11.5 -11.5,11.5c-6.35127,0 -11.5,-5.14873 -11.5,-11.5c0,-6.35127 5.14873,-11.5 11.5,-11.5c6.35127,0 11.5,5.14873 11.5,11.5z" data-paper-data="{&quot;index&quot;:null}" fill="#b06500"/><path d="M349.5,313.5c0,6.35127 -5.14873,11.5 -11.5,11.5c-6.35127,0 -11.5,-5.14873 -11.5,-11.5c0,-6.35127 5.14873,-11.5 11.5,-11.5c6.35127,0 11.5,5.14873 11.5,11.5z" data-paper-data="{&quot;index&quot;:null}" fill="#b06500"/><path d="M376.5,321.5c0,6.35127 -5.14873,11.5 -11.5,11.5c-6.35127,0 -11.5,-5.14873 -11.5,-11.5c0,-6.35127 5.14873,-11.5 11.5,-11.5c6.35127,0 11.5,5.14873 11.5,11.5z" data-paper-data="{&quot;index&quot;:null}" fill="#b06500"/><path d="M317.5,299.5c0,6.35127 -5.14873,11.5 -11.5,11.5c-6.35127,0 -11.5,-5.14873 -11.5,-11.5c0,-6.35127 5.14873,-11.5 11.5,-11.5c6.35127,0 11.5,5.14873 11.5,11.5z" data-paper-data="{&quot;index&quot;:null}" fill="#b06500"/><path d="M299.5,299.5c0,6.35127 -5.14873,11.5 -11.5,11.5c-6.35127,0 -11.5,-5.14873 -11.5,-11.5c0,-6.35127 5.14873,-11.5 11.5,-11.5c6.35127,0 11.5,5.14873 11.5,11.5z" data-paper-data="{&quot;index&quot;:null}" fill="#b06500"/><path d="M388.5,377.5c0,8.56041 -6.93958,15.5 -15.5,15.5c-8.56042,0 -15.5,-6.93959 -15.5,-15.5c0,-8.56041 6.93958,-15.5 15.5,-15.5c8.56042,0 15.5,6.93959 15.5,15.5z" data-paper-data="{&quot;index&quot;:null}" fill="#b07d00"/><path d="M336.5,380.5c0,8.56041 -6.93958,15.5 -15.5,15.5c-8.56042,0 -15.5,-6.93959 -15.5,-15.5c0,-8.56041 6.93958,-15.5 15.5,-15.5c8.56042,0 15.5,6.93959 15.5,15.5z" data-paper-data="{&quot;index&quot;:null}" fill="#b07d00"/><path d="M205.5,373.5c0,8.56041 -6.93958,15.5 -15.5,15.5c-8.56042,0 -15.5,-6.93959 -15.5,-15.5c0,-8.56041 6.93958,-15.5 15.5,-15.5c8.56042,0 15.5,6.93959 15.5,15.5z" data-paper-data="{&quot;index&quot;:null}" fill="#b07d00"/><path d="M149.5,376.5c0,8.56041 -6.93958,15.5 -15.5,15.5c-8.56042,0 -15.5,-6.93959 -15.5,-15.5c0,-8.56041 6.93958,-15.5 15.5,-15.5c8.56042,0 15.5,6.93959 15.5,15.5z" data-paper-data="{&quot;index&quot;:null}" fill="#b07d00"/><path d="M126.5,372.5c0,8.56041 -6.93958,15.5 -15.5,15.5c-8.56042,0 -15.5,-6.93959 -15.5,-15.5c0,-8.56041 6.93958,-15.5 15.5,-15.5c8.56042,0 15.5,6.93959 15.5,15.5z" data-paper-data="{&quot;index&quot;:null}" fill="#b07d00"/><path d="M90.5,377.5c0,8.56041 -6.93958,15.5 -15.5,15.5c-8.56042,0 -15.5,-6.93959 -15.5,-15.5c0,-8.56041 6.93958,-15.5 15.5,-15.5c8.56042,0 15.5,6.93959 15.5,15.5z" data-paper-data="{&quot;index&quot;:null}" fill="#b07d00"/><path d="M447.5,375.5c0,6.35127 -5.14873,11.5 -11.5,11.5c-6.35127,0 -11.5,-5.14873 -11.5,-11.5c0,-6.35127 5.14873,-11.5 11.5,-11.5c6.35127,0 11.5,5.14873 11.5,11.5z" data-paper-data="{&quot;index&quot;:null}" fill="#b06500"/><path d="M408.5,377.5c0,6.35127 -5.14873,11.5 -11.5,11.5c-6.35127,0 -11.5,-5.14873 -11.5,-11.5c0,-6.35127 5.14873,-11.5 11.5,-11.5c6.35127,0 11.5,5.14873 11.5,11.5z" data-paper-data="{&quot;index&quot;:null}" fill="#b06500"/><path d="M368.5,377.5c0,6.35127 -5.14873,11.5 -11.5,11.5c-6.35127,0 -11.5,-5.14873 -11.5,-11.5c0,-6.35127 5.14873,-11.5 11.5,-11.5c6.35127,0 11.5,5.14873 11.5,11.5z" data-paper-data="{&quot;index&quot;:null}" fill="#b06500"/><path d="M311.5,372.5c0,6.35127 -5.14873,11.5 -11.5,11.5c-6.35127,0 -11.5,-5.14873 -11.5,-11.5c0,-6.35127 5.14873,-11.5 11.5,-11.5c6.35127,0 11.5,5.14873 11.5,11.5z" data-paper-data="{&quot;index&quot;:null}" fill="#b06500"/><path d="M282.5,371.5c0,6.35127 -5.14873,11.5 -11.5,11.5c-6.35127,0 -11.5,-5.14873 -11.5,-11.5c0,-6.35127 5.14873,-11.5 11.5,-11.5c6.35127,0 11.5,5.14873 11.5,11.5z" data-paper-data="{&quot;index&quot;:null}" fill="#b06500"/><path d="M255.5,377.5c0,6.35127 -5.14873,11.5 -11.5,11.5c-6.35127,0 -11.5,-5.14873 -11.5,-11.5c0,-6.35127 5.14873,-11.5 11.5,-11.5c6.35127,0 11.5,5.14873 11.5,11.5z" data-paper-data="{&quot;index&quot;:null}" fill="#b06500"/><path d="M169.5,375.5c0,6.35127 -5.14873,11.5 -11.5,11.5c-6.35127,0 -11.5,-5.14873 -11.5,-11.5c0,-6.35127 5.14873,-11.5 11.5,-11.5c6.35127,0 11.5,5.14873 11.5,11.5z" data-paper-data="{&quot;index&quot;:null}" fill="#b06500"/><path d="M88.5,374.5c0,6.35127 -5.14873,11.5 -11.5,11.5c-6.35127,0 -11.5,-5.14873 -11.5,-11.5c0,-6.35127 5.14873,-11.5 11.5,-11.5c6.35127,0 11.5,5.14873 11.5,11.5z" data-paper-data="{&quot;index&quot;:null}" fill="#b06500"/><path d="M38.5,374.5c0,6.35127 -5.14873,11.5 -11.5,11.5c-6.35127,0 -11.5,-5.14873 -11.5,-11.5c0,-6.35127 5.14873,-11.5 11.5,-11.5c6.35127,0 11.5,5.14873 11.5,11.5z" data-paper-data="{&quot;index&quot;:null}" fill="#b06500"/><path d="M-4.5,359.5c0,-8.56041 6.93959,-15.5 15.5,-15.5c8.56041,0 15.5,6.93959 15.5,15.5c0,8.56041 -6.93959,15.5 -15.5,15.5c-8.56041,0 -15.5,-6.93959 -15.5,-15.5z" data-paper-data="{&quot;index&quot;:null}" fill="#b06500"/><path d="M27.5,352.5c0,-8.56041 6.93959,-15.5 15.5,-15.5c8.56042,0 15.5,6.93959 15.5,15.5c0,8.56041 -6.93958,15.5 -15.5,15.5c-8.56041,0 -15.5,-6.93959 -15.5,-15.5z" data-paper-data="{&quot;index&quot;:null}" fill="#b06500"/><path d="M87.5,377.5c0,-8.56041 6.93958,-15.5 15.5,-15.5c8.56042,0 15.5,6.93959 15.5,15.5c0,8.56041 -6.93958,15.5 -15.5,15.5c-8.56042,0 -15.5,-6.93959 -15.5,-15.5z" data-paper-data="{&quot;index&quot;:null}" fill="#b06500"/><path d="M115.5,351.5c0,-8.56041 6.93958,-15.5 15.5,-15.5c8.56042,0 15.5,6.93959 15.5,15.5c0,8.56041 -6.93958,15.5 -15.5,15.5c-8.56042,0 -15.5,-6.93959 -15.5,-15.5z" data-paper-data="{&quot;index&quot;:null}" fill="#b07d00"/><path d="M85.5,357.5c0,-8.56041 6.93958,-15.5 15.5,-15.5c8.56042,0 15.5,6.93959 15.5,15.5c0,8.56041 -6.93958,15.5 -15.5,15.5c-8.56042,0 -15.5,-6.93959 -15.5,-15.5z" data-paper-data="{&quot;index&quot;:null}" fill="#b06500"/><path d="M145.5,364.5c0,-8.56041 6.93958,-15.5 15.5,-15.5c8.56042,0 15.5,6.93959 15.5,15.5c0,8.56041 -6.93958,15.5 -15.5,15.5c-8.56042,0 -15.5,-6.93959 -15.5,-15.5z" data-paper-data="{&quot;index&quot;:null}" fill="#b07d00"/><path d="M172.5,352.5c0,-8.56041 6.93958,-15.5 15.5,-15.5c8.56042,0 15.5,6.93959 15.5,15.5c0,8.56041 -6.93958,15.5 -15.5,15.5c-8.56042,0 -15.5,-6.93959 -15.5,-15.5z" data-paper-data="{&quot;index&quot;:null}" fill="#b06500"/><path d="M205.5,357.5c0,-8.56041 6.93958,-15.5 15.5,-15.5c8.56042,0 15.5,6.93959 15.5,15.5c0,8.56041 -6.93958,15.5 -15.5,15.5c-8.56042,0 -15.5,-6.93959 -15.5,-15.5z" data-paper-data="{&quot;index&quot;:null}" fill="#b06500"/><path d="M238.5,353.5c0,-8.56041 6.93958,-15.5 15.5,-15.5c8.56042,0 15.5,6.93959 15.5,15.5c0,8.56041 -6.93958,15.5 -15.5,15.5c-8.56042,0 -15.5,-6.93959 -15.5,-15.5z" data-paper-data="{&quot;index&quot;:null}" fill="#b07d00"/><path d="M282.5,369.5c0,-8.56041 6.93958,-15.5 15.5,-15.5c8.56042,0 15.5,6.93959 15.5,15.5c0,8.56041 -6.93958,15.5 -15.5,15.5c-8.56042,0 -15.5,-6.93959 -15.5,-15.5z" data-paper-data="{&quot;index&quot;:null}" fill="#b07d00"/><path d="M298.5,353.5c0,-8.56041 6.93958,-15.5 15.5,-15.5c8.56042,0 15.5,6.93959 15.5,15.5c0,8.56041 -6.93958,15.5 -15.5,15.5c-8.56042,0 -15.5,-6.93959 -15.5,-15.5z" data-paper-data="{&quot;index&quot;:null}" fill="#b07d00"/><path d="M339.5,360.5c0,-8.56041 6.93958,-15.5 15.5,-15.5c8.56042,0 15.5,6.93959 15.5,15.5c0,8.56041 -6.93958,15.5 -15.5,15.5c-8.56042,0 -15.5,-6.93959 -15.5,-15.5z" data-paper-data="{&quot;index&quot;:null}" fill="#b07d00"/><path d="M361.5,361.5c0,-8.56041 6.93958,-15.5 15.5,-15.5c8.56042,0 15.5,6.93959 15.5,15.5c0,8.56041 -6.93958,15.5 -15.5,15.5c-8.56042,0 -15.5,-6.93959 -15.5,-15.5z" data-paper-data="{&quot;index&quot;:null}" fill="#b07d00"/><path d="M391.5,365.5c0,-8.56041 6.93958,-15.5 15.5,-15.5c8.56042,0 15.5,6.93959 15.5,15.5c0,8.56041 -6.93958,15.5 -15.5,15.5c-8.56042,0 -15.5,-6.93959 -15.5,-15.5z" data-paper-data="{&quot;index&quot;:null}" fill="#b07d00"/><path d="M425.5,362.5c0,-8.56041 6.93958,-15.5 15.5,-15.5c8.56042,0 15.5,6.93959 15.5,15.5c0,8.56041 -6.93958,15.5 -15.5,15.5c-8.56042,0 -15.5,-6.93959 -15.5,-15.5z" data-paper-data="{&quot;index&quot;:null}" fill="#b07d00"/><path d="M456.5,353.5c0,-8.56041 6.93958,-15.5 15.5,-15.5c8.56042,0 15.5,6.93959 15.5,15.5c0,8.56041 -6.93958,15.5 -15.5,15.5c-8.56042,0 -15.5,-6.93959 -15.5,-15.5z" data-paper-data="{&quot;index&quot;:null}" fill="#b05300"/><path d="M10.5,351.5c0,-6.35127 5.14873,-11.5 11.5,-11.5c6.35127,0 11.5,5.14873 11.5,11.5c0,6.35127 -5.14873,11.5 -11.5,11.5c-6.35127,0 -11.5,-5.14873 -11.5,-11.5z" data-paper-data="{&quot;index&quot;:null}" fill="#b06500"/><path d="M35.5,364.5c0,-6.35127 5.14873,-11.5 11.5,-11.5c6.35127,0 11.5,5.14873 11.5,11.5c0,6.35127 -5.14873,11.5 -11.5,11.5c-6.35127,0 -11.5,-5.14873 -11.5,-11.5z" data-paper-data="{&quot;index&quot;:null}" fill="#b06500"/><path d="M73.5,365.5c0,-6.35127 5.14873,-11.5 11.5,-11.5c6.35127,0 11.5,5.14873 11.5,11.5c0,6.35127 -5.14873,11.5 -11.5,11.5c-6.35127,0 -11.5,-5.14873 -11.5,-11.5z" data-paper-data="{&quot;index&quot;:null}" fill="#b06500"/><path d="M119.5,365.5c0,-6.35127 5.14873,-11.5 11.5,-11.5c6.35127,0 11.5,5.14873 11.5,11.5c0,6.35127 -5.14873,11.5 -11.5,11.5c-6.35127,0 -11.5,-5.14873 -11.5,-11.5z" data-paper-data="{&quot;index&quot;:null}" fill="#b06500"/><path d="M136.5,358.5c0,-6.35127 5.14873,-11.5 11.5,-11.5c6.35127,0 11.5,5.14873 11.5,11.5c0,6.35127 -5.14873,11.5 -11.5,11.5c-6.35127,0 -11.5,-5.14873 -11.5,-11.5z" data-paper-data="{&quot;index&quot;:null}" fill="#b06500"/><path d="M178.5,370.5c0,-6.35127 5.14873,-11.5 11.5,-11.5c6.35127,0 11.5,5.14873 11.5,11.5c0,6.35127 -5.14873,11.5 -11.5,11.5c-6.35127,0 -11.5,-5.14873 -11.5,-11.5z" data-paper-data="{&quot;index&quot;:null}" fill="#b06500"/><path d="M199.5,368.5c0,-6.35127 5.14873,-11.5 11.5,-11.5c6.35127,0 11.5,5.14873 11.5,11.5c0,6.35127 -5.14873,11.5 -11.5,11.5c-6.35127,0 -11.5,-5.14873 -11.5,-11.5z" data-paper-data="{&quot;index&quot;:null}" fill="#b06500"/><path d="M255.5,361.5c0,-6.35127 5.14873,-11.5 11.5,-11.5c6.35127,0 11.5,5.14873 11.5,11.5c0,6.35127 -5.14873,11.5 -11.5,11.5c-6.35127,0 -11.5,-5.14873 -11.5,-11.5z" data-paper-data="{&quot;index&quot;:null}" fill="#b06500"/><path d="M323.5,374.5c0,-6.35127 5.14873,-11.5 11.5,-11.5c6.35127,0 11.5,5.14873 11.5,11.5c0,6.35127 -5.14873,11.5 -11.5,11.5c-6.35127,0 -11.5,-5.14873 -11.5,-11.5z" data-paper-data="{&quot;index&quot;:null}" fill="#b06500"/><path d="M365.5,378.5c0,-6.35127 5.14873,-11.5 11.5,-11.5c6.35127,0 11.5,5.14873 11.5,11.5c0,6.35127 -5.14873,11.5 -11.5,11.5c-6.35127,0 -11.5,-5.14873 -11.5,-11.5z" data-paper-data="{&quot;index&quot;:null}" fill="#b06500"/><path d="M384.5,357.5c0,-6.35127 5.14873,-11.5 11.5,-11.5c6.35127,0 11.5,5.14873 11.5,11.5c0,6.35127 -5.14873,11.5 -11.5,11.5c-6.35127,0 -11.5,-5.14873 -11.5,-11.5z" data-paper-data="{&quot;index&quot;:null}" fill="#b06500"/><path d="M414.5,376.5c0,-6.35127 5.14873,-11.5 11.5,-11.5c6.35127,0 11.5,5.14873 11.5,11.5c0,6.35127 -5.14873,11.5 -11.5,11.5c-6.35127,0 -11.5,-5.14873 -11.5,-11.5z" data-paper-data="{&quot;index&quot;:null}" fill="#b06500"/><path d="M446.5,366.5c0,-6.35127 5.14873,-11.5 11.5,-11.5c6.35127,0 11.5,5.14873 11.5,11.5c0,6.35127 -5.14873,11.5 -11.5,11.5c-6.35127,0 -11.5,-5.14873 -11.5,-11.5z" data-paper-data="{&quot;index&quot;:null}" fill="#b06500"/><path d="M-1.5,349.5c0,-8.56041 6.93959,-15.5 15.5,-15.5c8.56041,0 15.5,6.93959 15.5,15.5c0,8.56041 -6.93959,15.5 -15.5,15.5c-8.56041,0 -15.5,-6.93959 -15.5,-15.5z" data-paper-data="{&quot;index&quot;:null}" fill="#b06500"/><path d="M30.5,342.5c0,-8.56041 6.93959,-15.5 15.5,-15.5c8.56042,0 15.5,6.93959 15.5,15.5c0,8.56041 -6.93958,15.5 -15.5,15.5c-8.56041,0 -15.5,-6.93959 -15.5,-15.5z" data-paper-data="{&quot;index&quot;:null}" fill="#b06500"/><path d="M55.5,347.5c0,-8.56041 6.93958,-15.5 15.5,-15.5c8.56042,0 15.5,6.93959 15.5,15.5c0,8.56041 -6.93958,15.5 -15.5,15.5c-8.56042,0 -15.5,-6.93959 -15.5,-15.5z" data-paper-data="{&quot;index&quot;:null}" fill="#b06500"/><path d="M118.5,341.5c0,-8.56041 6.93958,-15.5 15.5,-15.5c8.56042,0 15.5,6.93959 15.5,15.5c0,8.56041 -6.93958,15.5 -15.5,15.5c-8.56042,0 -15.5,-6.93959 -15.5,-15.5z" data-paper-data="{&quot;index&quot;:null}" fill="#b07d00"/><path d="M90.5,356.5c0,-8.56041 6.93958,-15.5 15.5,-15.5c8.56042,0 15.5,6.93959 15.5,15.5c0,8.56041 -6.93958,15.5 -15.5,15.5c-8.56042,0 -15.5,-6.93959 -15.5,-15.5z" data-paper-data="{&quot;index&quot;:null}" fill="#b06500"/><path d="M148.5,352.5c0,-8.56041 6.93958,-15.5 15.5,-15.5c8.56042,0 15.5,6.93959 15.5,15.5c0,8.56041 -6.93958,15.5 -15.5,15.5c-8.56042,0 -15.5,-6.93959 -15.5,-15.5z" data-paper-data="{&quot;index&quot;:null}" fill="#b07d00"/><path d="M154.5,347.5c0,-8.56041 6.93958,-15.5 15.5,-15.5c8.56042,0 15.5,6.93959 15.5,15.5c0,8.56041 -6.93958,15.5 -15.5,15.5c-8.56042,0 -15.5,-6.93959 -15.5,-15.5z" data-paper-data="{&quot;index&quot;:null}" fill="#b06500"/><path d="M208.5,347.5c0,-8.56041 6.93958,-15.5 15.5,-15.5c8.56042,0 15.5,6.93959 15.5,15.5c0,8.56041 -6.93958,15.5 -15.5,15.5c-8.56042,0 -15.5,-6.93959 -15.5,-15.5z" data-paper-data="{&quot;index&quot;:null}" fill="#b06500"/><path d="M241.5,343.5c0,-8.56041 6.93958,-15.5 15.5,-15.5c8.56042,0 15.5,6.93959 15.5,15.5c0,8.56041 -6.93958,15.5 -15.5,15.5c-8.56042,0 -15.5,-6.93959 -15.5,-15.5z" data-paper-data="{&quot;index&quot;:null}" fill="#b07d00"/><path d="M274.5,359.5c0,-8.56041 6.93958,-15.5 15.5,-15.5c8.56042,0 15.5,6.93959 15.5,15.5c0,8.56041 -6.93958,15.5 -15.5,15.5c-8.56042,0 -15.5,-6.93959 -15.5,-15.5z" data-paper-data="{&quot;index&quot;:null}" fill="#b07d00"/><path d="M301.5,343.5c0,-8.56041 6.93958,-15.5 15.5,-15.5c8.56042,0 15.5,6.93959 15.5,15.5c0,8.56041 -6.93958,15.5 -15.5,15.5c-8.56042,0 -15.5,-6.93959 -15.5,-15.5z" data-paper-data="{&quot;index&quot;:null}" fill="#b07d00"/><path d="M334.5,353.5c0,-8.56041 6.93958,-15.5 15.5,-15.5c8.56042,0 15.5,6.93959 15.5,15.5c0,8.56041 -6.93958,15.5 -15.5,15.5c-8.56042,0 -15.5,-6.93959 -15.5,-15.5z" data-paper-data="{&quot;index&quot;:null}" fill="#b07d00"/><path d="M364.5,351.5c0,-8.56041 6.93958,-15.5 15.5,-15.5c8.56042,0 15.5,6.93959 15.5,15.5c0,8.56041 -6.93958,15.5 -15.5,15.5c-8.56042,0 -15.5,-6.93959 -15.5,-15.5z" data-paper-data="{&quot;index&quot;:null}" fill="#b07d00"/><path d="M389.5,358.5c0,-8.56041 6.93958,-15.5 15.5,-15.5c8.56042,0 15.5,6.93959 15.5,15.5c0,8.56041 -6.93958,15.5 -15.5,15.5c-8.56042,0 -15.5,-6.93959 -15.5,-15.5z" data-paper-data="{&quot;index&quot;:null}" fill="#b07d00"/><path d="M428.5,352.5c0,-8.56041 6.93958,-15.5 15.5,-15.5c8.56042,0 15.5,6.93959 15.5,15.5c0,8.56041 -6.93958,15.5 -15.5,15.5c-8.56042,0 -15.5,-6.93959 -15.5,-15.5z" data-paper-data="{&quot;index&quot;:null}" fill="#b07d00"/><path d="M459.5,343.5c0,-8.56041 6.93958,-15.5 15.5,-15.5c8.56042,0 15.5,6.93959 15.5,15.5c0,8.56041 -6.93958,15.5 -15.5,15.5c-8.56042,0 -15.5,-6.93959 -15.5,-15.5z" data-paper-data="{&quot;index&quot;:null}" fill="#b05300"/><path d="M13.5,341.5c0,-6.35127 5.14873,-11.5 11.5,-11.5c6.35127,0 11.5,5.14873 11.5,11.5c0,6.35127 -5.14873,11.5 -11.5,11.5c-6.35127,0 -11.5,-5.14873 -11.5,-11.5z" data-paper-data="{&quot;index&quot;:null}" fill="#b06500"/><path d="M48.5,365.5c0,-6.90355 5.14873,-12.5 11.5,-12.5c6.35127,0 11.5,5.59645 11.5,12.5c0,6.90355 -5.14873,12.5 -11.5,12.5c-6.35127,0 -11.5,-5.59645 -11.5,-12.5z" data-paper-data="{&quot;index&quot;:null}" fill="#b06500"/><path d="M76.5,355.5c0,-6.35127 5.14873,-11.5 11.5,-11.5c6.35127,0 11.5,5.14873 11.5,11.5c0,6.35127 -5.14873,11.5 -11.5,11.5c-6.35127,0 -11.5,-5.14873 -11.5,-11.5z" data-paper-data="{&quot;index&quot;:null}" fill="#b06500"/><path d="M116.5,355.5c0,-6.35127 5.14873,-11.5 11.5,-11.5c6.35127,0 11.5,5.14873 11.5,11.5c0,6.35127 -5.14873,11.5 -11.5,11.5c-6.35127,0 -11.5,-5.14873 -11.5,-11.5z" data-paper-data="{&quot;index&quot;:null}" fill="#b06500"/><path d="M139.5,361.5c0,-6.35127 5.14873,-11.5 11.5,-11.5c6.35127,0 11.5,5.14873 11.5,11.5c0,6.35127 -5.14873,11.5 -11.5,11.5c-6.35127,0 -11.5,-5.14873 -11.5,-11.5z" data-paper-data="{&quot;index&quot;:null}" fill="#b06500"/><path d="M173.5,360.5c0,-6.35127 5.14873,-11.5 11.5,-11.5c6.35127,0 11.5,5.14873 11.5,11.5c0,6.35127 -5.14873,11.5 -11.5,11.5c-6.35127,0 -11.5,-5.14873 -11.5,-11.5z" data-paper-data="{&quot;index&quot;:null}" fill="#b06500"/><path d="M202.5,361.5c0,-6.35127 5.14873,-11.5 11.5,-11.5c6.35127,0 11.5,5.14873 11.5,11.5c0,6.35127 -5.14873,11.5 -11.5,11.5c-6.35127,0 -11.5,-5.14873 -11.5,-11.5z" data-paper-data="{&quot;index&quot;:null}" fill="#b06500"/><path d="M231.5,357.5c0,-6.35127 5.14873,-11.5 11.5,-11.5c6.35127,0 11.5,5.14873 11.5,11.5c0,6.35127 -5.14873,11.5 -11.5,11.5c-6.35127,0 -11.5,-5.14873 -11.5,-11.5z" data-paper-data="{&quot;index&quot;:null}" fill="#b06500"/><path d="M258.5,346.5c0,-6.35127 5.14873,-11.5 11.5,-11.5c6.35127,0 11.5,5.14873 11.5,11.5c0,6.35127 -5.14873,11.5 -11.5,11.5c-6.35127,0 -11.5,-5.14873 -11.5,-11.5z" data-paper-data="{&quot;index&quot;:null}" fill="#b06500"/><path d="M362.5,373.5c0,-6.35127 5.14873,-11.5 11.5,-11.5c6.35127,0 11.5,5.14873 11.5,11.5c0,6.35127 -5.14873,11.5 -11.5,11.5c-6.35127,0 -11.5,-5.14873 -11.5,-11.5z" data-paper-data="{&quot;index&quot;:null}" fill="#b06500"/><path d="M398.5,379.5c0,-6.35127 5.14873,-11.5 11.5,-11.5c6.35127,0 11.5,5.14873 11.5,11.5c0,6.35127 -5.14873,11.5 -11.5,11.5c-6.35127,0 -11.5,-5.14873 -11.5,-11.5z" data-paper-data="{&quot;index&quot;:null}" fill="#b06500"/><path d="M449.5,356.5c0,-6.35127 5.14873,-11.5 11.5,-11.5c6.35127,0 11.5,5.14873 11.5,11.5c0,6.35127 -5.14873,11.5 -11.5,11.5c-6.35127,0 -11.5,-5.14873 -11.5,-11.5z" data-paper-data="{&quot;index&quot;:null}" fill="#b06500"/><path d="M247.5,365.5c0,-6.35127 5.14873,-11.5 11.5,-11.5c6.35127,0 11.5,5.14873 11.5,11.5c0,6.35127 -5.14873,11.5 -11.5,11.5c-6.35127,0 -11.5,-5.14873 -11.5,-11.5z" data-paper-data="{&quot;index&quot;:null}" fill="#b06500"/><path d="M214.5,372.5c0,-6.35127 5.14873,-11.5 11.5,-11.5c6.35127,0 11.5,5.14873 11.5,11.5c0,6.35127 -5.14873,11.5 -11.5,11.5c-6.35127,0 -11.5,-5.14873 -11.5,-11.5z" data-paper-data="{&quot;index&quot;:null}" fill="#b06500"/><path d="M158.5,374.5c0,-6.35127 5.14873,-11.5 11.5,-11.5c6.35127,0 11.5,5.14873 11.5,11.5c0,6.35127 -5.14873,11.5 -11.5,11.5c-6.35127,0 -11.5,-5.14873 -11.5,-11.5z" data-paper-data="{&quot;index&quot;:null}" fill="#b06500"/><path d="M106.5,375.5c0,-6.35127 5.14873,-11.5 11.5,-11.5c6.35127,0 11.5,5.14873 11.5,11.5c0,6.35127 -5.14873,11.5 -11.5,11.5c-6.35127,0 -11.5,-5.14873 -11.5,-11.5z" data-paper-data="{&quot;index&quot;:null}" fill="#b06500"/><path d="M488.5,356.5c0,8.56041 -6.93959,15.5 -15.5,15.5c-8.56041,0 -15.5,-6.93959 -15.5,-15.5c0,-8.56041 6.93959,-15.5 15.5,-15.5c8.56041,0 15.5,6.93959 15.5,15.5z" data-paper-data="{&quot;index&quot;:null}" fill="#bf5300"/><path d="M456.5,363.5c0,8.56041 -6.93959,15.5 -15.5,15.5c-8.56042,0 -15.5,-6.93959 -15.5,-15.5c0,-8.56041 6.93958,-15.5 15.5,-15.5c8.56041,0 15.5,6.93959 15.5,15.5z" data-paper-data="{&quot;index&quot;:null}" fill="#bf5300"/><path d="M368.5,364.5c0,8.56041 -6.93958,15.5 -15.5,15.5c-8.56042,0 -15.5,-6.93959 -15.5,-15.5c0,-8.56041 6.93958,-15.5 15.5,-15.5c8.56042,0 15.5,6.93959 15.5,15.5z" data-paper-data="{&quot;index&quot;:null}" fill="#bf5300"/><path d="M398.5,358.5c0,8.56041 -6.93958,15.5 -15.5,15.5c-8.56042,0 -15.5,-6.93959 -15.5,-15.5c0,-8.56041 6.93958,-15.5 15.5,-15.5c8.56042,0 15.5,6.93959 15.5,15.5z" data-paper-data="{&quot;index&quot;:null}" fill="#bf5300"/><path d="M311.5,363.5c0,8.56041 -6.93958,15.5 -15.5,15.5c-8.56042,0 -15.5,-6.93959 -15.5,-15.5c0,-8.56041 6.93958,-15.5 15.5,-15.5c8.56042,0 15.5,6.93959 15.5,15.5z" data-paper-data="{&quot;index&quot;:null}" fill="#bf5300"/><path d="M278.5,358.5c0,8.56041 -6.93958,15.5 -15.5,15.5c-8.56042,0 -15.5,-6.93959 -15.5,-15.5c0,-8.56041 6.93958,-15.5 15.5,-15.5c8.56042,0 15.5,6.93959 15.5,15.5z" data-paper-data="{&quot;index&quot;:null}" fill="#bf5300"/><path d="M245.5,362.5c0,8.56041 -6.93958,15.5 -15.5,15.5c-8.56042,0 -15.5,-6.93959 -15.5,-15.5c0,-8.56041 6.93958,-15.5 15.5,-15.5c8.56042,0 15.5,6.93959 15.5,15.5z" data-paper-data="{&quot;index&quot;:null}" fill="#bf5300"/><path d="M185.5,362.5c0,8.56041 -6.93958,15.5 -15.5,15.5c-8.56042,0 -15.5,-6.93959 -15.5,-15.5c0,-8.56041 6.93958,-15.5 15.5,-15.5c8.56042,0 15.5,6.93959 15.5,15.5z" data-paper-data="{&quot;index&quot;:null}" fill="#bf5300"/><path d="M144.5,355.5c0,8.56041 -6.93958,15.5 -15.5,15.5c-8.56042,0 -15.5,-6.93959 -15.5,-15.5c0,-8.56041 6.93958,-15.5 15.5,-15.5c8.56042,0 15.5,6.93959 15.5,15.5z" data-paper-data="{&quot;index&quot;:null}" fill="#bf5300"/><path d="M27.5,362.5c0,8.56041 -6.93958,15.5 -15.5,15.5c-8.56042,0 -15.5,-6.93959 -15.5,-15.5c0,-8.56041 6.93958,-15.5 15.5,-15.5c8.56042,0 15.5,6.93959 15.5,15.5z" data-paper-data="{&quot;index&quot;:null}" fill="#bf5300"/><path d="M473.5,364.5c0,6.35127 -5.14873,11.5 -11.5,11.5c-6.35127,0 -11.5,-5.14873 -11.5,-11.5c0,-6.35127 5.14873,-11.5 11.5,-11.5c6.35127,0 11.5,5.14873 11.5,11.5z" data-paper-data="{&quot;index&quot;:null}" fill="#bf5300"/><path d="M485.5,366.5c0,8.56041 -6.93959,15.5 -15.5,15.5c-8.56041,0 -15.5,-6.93959 -15.5,-15.5c0,-8.56041 6.93959,-15.5 15.5,-15.5c8.56041,0 15.5,6.93959 15.5,15.5z" data-paper-data="{&quot;index&quot;:null}" fill="#bf5300"/><path d="M453.5,373.5c0,8.56041 -6.93959,15.5 -15.5,15.5c-8.56042,0 -15.5,-6.93959 -15.5,-15.5c0,-8.56041 6.93958,-15.5 15.5,-15.5c8.56041,0 15.5,6.93959 15.5,15.5z" data-paper-data="{&quot;index&quot;:null}" fill="#bf5300"/><path d="M428.5,368.5c0,8.56041 -6.93958,15.5 -15.5,15.5c-8.56042,0 -15.5,-6.93959 -15.5,-15.5c0,-8.56041 6.93958,-15.5 15.5,-15.5c8.56042,0 15.5,6.93959 15.5,15.5z" data-paper-data="{&quot;index&quot;:null}" fill="#bf5300"/><path d="M365.5,374.5c0,8.56041 -6.93958,15.5 -15.5,15.5c-8.56042,0 -15.5,-6.93959 -15.5,-15.5c0,-8.56041 6.93958,-15.5 15.5,-15.5c8.56042,0 15.5,6.93959 15.5,15.5z" data-paper-data="{&quot;index&quot;:null}" fill="#bf5300"/><path d="M393.5,359.5c0,8.56041 -6.93958,15.5 -15.5,15.5c-8.56042,0 -15.5,-6.93959 -15.5,-15.5c0,-8.56041 6.93958,-15.5 15.5,-15.5c8.56042,0 15.5,6.93959 15.5,15.5z" data-paper-data="{&quot;index&quot;:null}" fill="#bf5300"/><path d="M335.5,363.5c0,8.56041 -6.93958,15.5 -15.5,15.5c-8.56042,0 -15.5,-6.93959 -15.5,-15.5c0,-8.56041 6.93958,-15.5 15.5,-15.5c8.56042,0 15.5,6.93959 15.5,15.5z" data-paper-data="{&quot;index&quot;:null}" fill="#bf5300"/><path d="M329.5,368.5c0,8.56041 -6.93958,15.5 -15.5,15.5c-8.56042,0 -15.5,-6.93959 -15.5,-15.5c0,-8.56041 6.93958,-15.5 15.5,-15.5c8.56042,0 15.5,6.93959 15.5,15.5z" data-paper-data="{&quot;index&quot;:null}" fill="#bf5300"/><path d="M275.5,368.5c0,8.56041 -6.93958,15.5 -15.5,15.5c-8.56042,0 -15.5,-6.93959 -15.5,-15.5c0,-8.56041 6.93958,-15.5 15.5,-15.5c8.56042,0 15.5,6.93959 15.5,15.5z" data-paper-data="{&quot;index&quot;:null}" fill="#bf5300"/><path d="M242.5,372.5c0,8.56041 -6.93958,15.5 -15.5,15.5c-8.56042,0 -15.5,-6.93959 -15.5,-15.5c0,-8.56041 6.93958,-15.5 15.5,-15.5c8.56042,0 15.5,6.93959 15.5,15.5z" data-paper-data="{&quot;index&quot;:null}" fill="#bf5300"/><path d="M209.5,356.5c0,8.56041 -6.93958,15.5 -15.5,15.5c-8.56042,0 -15.5,-6.93959 -15.5,-15.5c0,-8.56041 6.93958,-15.5 15.5,-15.5c8.56042,0 15.5,6.93959 15.5,15.5z" data-paper-data="{&quot;index&quot;:null}" fill="#bf5300"/><path d="M182.5,372.5c0,8.56041 -6.93958,15.5 -15.5,15.5c-8.56042,0 -15.5,-6.93959 -15.5,-15.5c0,-8.56041 6.93958,-15.5 15.5,-15.5c8.56042,0 15.5,6.93959 15.5,15.5z" data-paper-data="{&quot;index&quot;:null}" fill="#bf5300"/><path d="M149.5,362.5c0,8.56041 -6.93958,15.5 -15.5,15.5c-8.56042,0 -15.5,-6.93959 -15.5,-15.5c0,-8.56041 6.93958,-15.5 15.5,-15.5c8.56042,0 15.5,6.93959 15.5,15.5z" data-paper-data="{&quot;index&quot;:null}" fill="#bf5300"/><path d="M119.5,364.5c0,8.56041 -6.93958,15.5 -15.5,15.5c-8.56042,0 -15.5,-6.93959 -15.5,-15.5c0,-8.56041 6.93958,-15.5 15.5,-15.5c8.56042,0 15.5,6.93959 15.5,15.5z" data-paper-data="{&quot;index&quot;:null}" fill="#bf5300"/><path d="M94.5,357.5c0,8.56041 -6.93958,15.5 -15.5,15.5c-8.56042,0 -15.5,-6.93959 -15.5,-15.5c0,-8.56041 6.93958,-15.5 15.5,-15.5c8.56042,0 15.5,6.93959 15.5,15.5z" data-paper-data="{&quot;index&quot;:null}" fill="#bf5300"/><path d="M55.5,363.5c0,8.56041 -6.93958,15.5 -15.5,15.5c-8.56042,0 -15.5,-6.93959 -15.5,-15.5c0,-8.56041 6.93958,-15.5 15.5,-15.5c8.56042,0 15.5,6.93959 15.5,15.5z" data-paper-data="{&quot;index&quot;:null}" fill="#bf5300"/><path d="M24.5,372.5c0,8.56041 -6.93958,15.5 -15.5,15.5c-8.56042,0 -15.5,-6.93959 -15.5,-15.5c0,-8.56041 6.93958,-15.5 15.5,-15.5c8.56042,0 15.5,6.93959 15.5,15.5z" data-paper-data="{&quot;index&quot;:null}" fill="#bf5300"/><path d="M470.5,374.5c0,6.35127 -5.14873,11.5 -11.5,11.5c-6.35127,0 -11.5,-5.14873 -11.5,-11.5c0,-6.35127 5.14873,-11.5 11.5,-11.5c6.35127,0 11.5,5.14873 11.5,11.5z" data-paper-data="{&quot;index&quot;:null}" fill="#bf5300"/><path d="M407.5,360.5c0,6.35127 -5.14873,11.5 -11.5,11.5c-6.35127,0 -11.5,-5.14873 -11.5,-11.5c0,-6.35127 5.14873,-11.5 11.5,-11.5c6.35127,0 11.5,5.14873 11.5,11.5z" data-paper-data="{&quot;index&quot;:null}" fill="#bf5300"/><path d="M367.5,360.5c0,6.35127 -5.14873,11.5 -11.5,11.5c-6.35127,0 -11.5,-5.14873 -11.5,-11.5c0,-6.35127 5.14873,-11.5 11.5,-11.5c6.35127,0 11.5,5.14873 11.5,11.5z" data-paper-data="{&quot;index&quot;:null}" fill="#bf5300"/><path d="M225.5,369.5c0,6.35127 -5.14873,11.5 -11.5,11.5c-6.35127,0 -11.5,-5.14873 -11.5,-11.5c0,-6.35127 5.14873,-11.5 11.5,-11.5c6.35127,0 11.5,5.14873 11.5,11.5z" data-paper-data="{&quot;index&quot;:null}" fill="#bf5300"/><path d="M34.5,359.5c0,6.35127 -5.14873,11.5 -11.5,11.5c-6.35127,0 -11.5,-5.14873 -11.5,-11.5c0,-6.35127 5.14873,-11.5 11.5,-11.5c6.35127,0 11.5,5.14873 11.5,11.5z" data-paper-data="{&quot;index&quot;:null}" fill="#bf5300"/></g></g></svg>