<svg version="1.1" xmlns="http://www.w3.org/2000/svg" xmlns:xlink="http://www.w3.org/1999/xlink" width="480" height="53" viewBox="0,0,480,53"><g transform="translate(3.5,-338)"><g data-paper-data="{&quot;isPaintingLayer&quot;:true}" fill="#b03c00" fill-rule="nonzero" stroke="none" stroke-width="0" stroke-linecap="butt" stroke-linejoin="miter" stroke-miterlimit="10" stroke-dasharray="" stroke-dashoffset="0" style="mix-blend-mode: normal"><path d="M-3.5,362.5c0,-8.56041 6.93959,-15.5 15.5,-15.5c8.56041,0 15.5,6.93959 15.5,15.5c0,8.56041 -6.93959,15.5 -15.5,15.5c-8.56041,0 -15.5,-6.93959 -15.5,-15.5z"/><path d="M28.5,367.5c0,-8.56041 6.93959,-15.5 15.5,-15.5c8.56042,0 15.5,6.93959 15.5,15.5c0,8.56041 -6.93958,15.5 -15.5,15.5c-8.56041,0 -15.5,-6.93959 -15.5,-15.5z"/><path d="M60.5,366.5c0,-8.56041 6.93958,-15.5 15.5,-15.5c8.56042,0 15.5,6.93959 15.5,15.5c0,8.56041 -6.93958,15.5 -15.5,15.5c-8.56042,0 -15.5,-6.93959 -15.5,-15.5z"/><path d="M106.5,364.5c0,-8.56041 6.93958,-15.5 15.5,-15.5c8.56042,0 15.5,6.93959 15.5,15.5c0,8.56041 -6.93958,15.5 -15.5,15.5c-8.56042,0 -15.5,-6.93959 -15.5,-15.5z"/><path d="M85.5,359.5c0,-8.56041 6.93958,-15.5 15.5,-15.5c8.56042,0 15.5,6.93959 15.5,15.5c0,8.56041 -6.93958,15.5 -15.5,15.5c-8.56042,0 -15.5,-6.93959 -15.5,-15.5z"/><path d="M141.5,367.5c0,-8.56041 6.93958,-15.5 15.5,-15.5c8.56042,0 15.5,6.93959 15.5,15.5c0,8.56041 -6.93958,15.5 -15.5,15.5c-8.56042,0 -15.5,-6.93959 -15.5,-15.5z"/><path d="M172.5,353.5c0,-8.56041 6.93958,-15.5 15.5,-15.5c8.56042,0 15.5,6.93959 15.5,15.5c0,8.56041 -6.93958,15.5 -15.5,15.5c-8.56042,0 -15.5,-6.93959 -15.5,-15.5z"/><path d="M200.5,369.5c0,-8.56041 6.93958,-15.5 15.5,-15.5c8.56042,0 15.5,6.93959 15.5,15.5c0,8.56041 -6.93958,15.5 -15.5,15.5c-8.56042,0 -15.5,-6.93959 -15.5,-15.5z"/><path d="M234.5,356.5c0,-8.56041 6.93958,-15.5 15.5,-15.5c8.56042,0 15.5,6.93959 15.5,15.5c0,8.56041 -6.93958,15.5 -15.5,15.5c-8.56042,0 -15.5,-6.93959 -15.5,-15.5z"/><path d="M267.5,370.5c0,-8.56041 6.93958,-15.5 15.5,-15.5c8.56042,0 15.5,6.93959 15.5,15.5c0,8.56041 -6.93958,15.5 -15.5,15.5c-8.56042,0 -15.5,-6.93959 -15.5,-15.5z"/><path d="M296.5,367.5c0,-8.56041 6.93958,-15.5 15.5,-15.5c8.56042,0 15.5,6.93959 15.5,15.5c0,8.56041 -6.93958,15.5 -15.5,15.5c-8.56042,0 -15.5,-6.93959 -15.5,-15.5z"/><path d="M323.5,365.5c0,-8.56041 6.93958,-15.5 15.5,-15.5c8.56042,0 15.5,6.93959 15.5,15.5c0,8.56041 -6.93958,15.5 -15.5,15.5c-8.56042,0 -15.5,-6.93959 -15.5,-15.5z"/><path d="M351.5,374.5c0,-8.56041 6.93958,-15.5 15.5,-15.5c8.56042,0 15.5,6.93959 15.5,15.5c0,8.56041 -6.93958,15.5 -15.5,15.5c-8.56042,0 -15.5,-6.93959 -15.5,-15.5z"/><path d="M391.5,366.5c0,-8.56041 6.93958,-15.5 15.5,-15.5c8.56042,0 15.5,6.93959 15.5,15.5c0,8.56041 -6.93958,15.5 -15.5,15.5c-8.56042,0 -15.5,-6.93959 -15.5,-15.5z"/><path d="M427.5,375.5c0,-8.56041 6.93958,-15.5 15.5,-15.5c8.56042,0 15.5,6.93959 15.5,15.5c0,8.56041 -6.93958,15.5 -15.5,15.5c-8.56042,0 -15.5,-6.93959 -15.5,-15.5z"/><path d="M445.5,364.5c0,-8.56041 6.93958,-15.5 15.5,-15.5c8.56042,0 15.5,6.93959 15.5,15.5c0,8.56041 -6.93958,15.5 -15.5,15.5c-8.56042,0 -15.5,-6.93959 -15.5,-15.5z"/></g></g></svg>