<svg version="1.1" xmlns="http://www.w3.org/2000/svg" xmlns:xlink="http://www.w3.org/1999/xlink" width="494" height="74" viewBox="0,0,494,74"><g transform="translate(4.5,-317)"><g data-paper-data="{&quot;isPaintingLayer&quot;:true}" fill-rule="nonzero" stroke="none" stroke-width="0" stroke-linecap="butt" stroke-linejoin="miter" stroke-miterlimit="10" stroke-dasharray="" stroke-dashoffset="0" style="mix-blend-mode: normal"><path d="M-3.5,343.5c0,-8.56041 6.93959,-15.5 15.5,-15.5c8.56041,0 15.5,6.93959 15.5,15.5c0,8.56041 -6.93959,15.5 -15.5,15.5c-8.56041,0 -15.5,-6.93959 -15.5,-15.5z" fill="#b06500"/><path d="M28.5,336.5c0,-8.56041 6.93959,-15.5 15.5,-15.5c8.56042,0 15.5,6.93959 15.5,15.5c0,8.56041 -6.93958,15.5 -15.5,15.5c-8.56041,0 -15.5,-6.93959 -15.5,-15.5z" fill="#b06500"/><path d="M53.5,342.5c0,-8.56041 6.93958,-15.5 15.5,-15.5c8.56042,0 15.5,6.93959 15.5,15.5c0,8.56041 -6.93958,15.5 -15.5,15.5c-8.56042,0 -15.5,-6.93959 -15.5,-15.5z" fill="#b06500"/><path d="M116.5,332.5c0,-8.56041 6.93958,-15.5 15.5,-15.5c8.56042,0 15.5,6.93959 15.5,15.5c0,8.56041 -6.93958,15.5 -15.5,15.5c-8.56042,0 -15.5,-6.93959 -15.5,-15.5z" fill="#b07d00"/><path d="M85.5,338.5c0,-8.56041 6.93958,-15.5 15.5,-15.5c8.56042,0 15.5,6.93959 15.5,15.5c0,8.56041 -6.93958,15.5 -15.5,15.5c-8.56042,0 -15.5,-6.93959 -15.5,-15.5z" fill="#b06500"/><path d="M146.5,346.5c0,-8.56041 6.93958,-15.5 15.5,-15.5c8.56042,0 15.5,6.93959 15.5,15.5c0,8.56041 -6.93958,15.5 -15.5,15.5c-8.56042,0 -15.5,-6.93959 -15.5,-15.5z" fill="#b07d00"/><path d="M173.5,336.5c0,-8.56041 6.93958,-15.5 15.5,-15.5c8.56042,0 15.5,6.93959 15.5,15.5c0,8.56041 -6.93958,15.5 -15.5,15.5c-8.56042,0 -15.5,-6.93959 -15.5,-15.5z" fill="#b06500"/><path d="M204.5,341.5c0,-8.56041 6.93958,-15.5 15.5,-15.5c8.56042,0 15.5,6.93959 15.5,15.5c0,8.56041 -6.93958,15.5 -15.5,15.5c-8.56042,0 -15.5,-6.93959 -15.5,-15.5z" fill="#b06500"/><path d="M239.5,337.5c0,-8.56041 6.93958,-15.5 15.5,-15.5c8.56042,0 15.5,6.93959 15.5,15.5c0,8.56041 -6.93958,15.5 -15.5,15.5c-8.56042,0 -15.5,-6.93959 -15.5,-15.5z" fill="#b07d00"/><path d="M277.5,353.5c0,-8.56041 6.93958,-15.5 15.5,-15.5c8.56042,0 15.5,6.93959 15.5,15.5c0,8.56041 -6.93958,15.5 -15.5,15.5c-8.56042,0 -15.5,-6.93959 -15.5,-15.5z" fill="#b07d00"/><path d="M299.5,337.5c0,-8.56041 6.93958,-15.5 15.5,-15.5c8.56042,0 15.5,6.93959 15.5,15.5c0,8.56041 -6.93958,15.5 -15.5,15.5c-8.56042,0 -15.5,-6.93959 -15.5,-15.5z" fill="#b07d00"/><path d="M333.5,350.5c0,-8.56041 6.93958,-15.5 15.5,-15.5c8.56042,0 15.5,6.93959 15.5,15.5c0,8.56041 -6.93958,15.5 -15.5,15.5c-8.56042,0 -15.5,-6.93959 -15.5,-15.5z" fill="#b07d00"/><path d="M356.5,354.5c0,-8.56041 6.93958,-15.5 15.5,-15.5c8.56042,0 15.5,6.93959 15.5,15.5c0,8.56041 -6.93958,15.5 -15.5,15.5c-8.56042,0 -15.5,-6.93959 -15.5,-15.5z" fill="#b07d00"/><path d="M392.5,349.5c0,-8.56041 6.93958,-15.5 15.5,-15.5c8.56042,0 15.5,6.93959 15.5,15.5c0,8.56041 -6.93958,15.5 -15.5,15.5c-8.56042,0 -15.5,-6.93959 -15.5,-15.5z" fill="#b07d00"/><path d="M426.5,336.5c0,-8.56041 6.93958,-15.5 15.5,-15.5c8.56042,0 15.5,6.93959 15.5,15.5c0,8.56041 -6.93958,15.5 -15.5,15.5c-8.56042,0 -15.5,-6.93959 -15.5,-15.5z" fill="#b07d00"/><path d="M458.5,333.5c0,-8.56041 6.93958,-15.5 15.5,-15.5c8.56042,0 15.5,6.93959 15.5,15.5c0,8.56041 -6.93958,15.5 -15.5,15.5c-8.56042,0 -15.5,-6.93959 -15.5,-15.5z" fill="#b05300"/><path d="M12.5,332.5c0,-6.35127 5.14873,-11.5 11.5,-11.5c6.35127,0 11.5,5.14873 11.5,11.5c0,6.35127 -5.14873,11.5 -11.5,11.5c-6.35127,0 -11.5,-5.14873 -11.5,-11.5z" fill="#b06500"/><path d="M35.5,351.5c0,-6.35127 5.14873,-11.5 11.5,-11.5c6.35127,0 11.5,5.14873 11.5,11.5c0,6.35127 -5.14873,11.5 -11.5,11.5c-6.35127,0 -11.5,-5.14873 -11.5,-11.5z" fill="#b06500"/><path d="M74.5,349.5c0,-6.35127 5.14873,-11.5 11.5,-11.5c6.35127,0 11.5,5.14873 11.5,11.5c0,6.35127 -5.14873,11.5 -11.5,11.5c-6.35127,0 -11.5,-5.14873 -11.5,-11.5z" fill="#b06500"/><path d="M114.5,349.5c0,-6.35127 5.14873,-11.5 11.5,-11.5c6.35127,0 11.5,5.14873 11.5,11.5c0,6.35127 -5.14873,11.5 -11.5,11.5c-6.35127,0 -11.5,-5.14873 -11.5,-11.5z" fill="#b06500"/><path d="M137.5,342.5c0,-6.35127 5.14873,-11.5 11.5,-11.5c6.35127,0 11.5,5.14873 11.5,11.5c0,6.35127 -5.14873,11.5 -11.5,11.5c-6.35127,0 -11.5,-5.14873 -11.5,-11.5z" fill="#b06500"/><path d="M171.5,354.5c0,-6.35127 5.14873,-11.5 11.5,-11.5c6.35127,0 11.5,5.14873 11.5,11.5c0,6.35127 -5.14873,11.5 -11.5,11.5c-6.35127,0 -11.5,-5.14873 -11.5,-11.5z" fill="#b06500"/><path d="M200.5,355.5c0,-6.35127 5.14873,-11.5 11.5,-11.5c6.35127,0 11.5,5.14873 11.5,11.5c0,6.35127 -5.14873,11.5 -11.5,11.5c-6.35127,0 -11.5,-5.14873 -11.5,-11.5z" fill="#b06500"/><path d="M229.5,351.5c0,-6.35127 5.14873,-11.5 11.5,-11.5c6.35127,0 11.5,5.14873 11.5,11.5c0,6.35127 -5.14873,11.5 -11.5,11.5c-6.35127,0 -11.5,-5.14873 -11.5,-11.5z" fill="#b06500"/><path d="M252.5,345.5c0,-6.35127 5.14873,-11.5 11.5,-11.5c6.35127,0 11.5,5.14873 11.5,11.5c0,6.35127 -5.14873,11.5 -11.5,11.5c-6.35127,0 -11.5,-5.14873 -11.5,-11.5z" fill="#b06500"/><path d="M313.5,351.5c0,-6.35127 5.14873,-11.5 11.5,-11.5c6.35127,0 11.5,5.14873 11.5,11.5c0,6.35127 -5.14873,11.5 -11.5,11.5c-6.35127,0 -11.5,-5.14873 -11.5,-11.5z" fill="#b06500"/><path d="M359.5,346.5c0,-6.35127 5.14873,-11.5 11.5,-11.5c6.35127,0 11.5,5.14873 11.5,11.5c0,6.35127 -5.14873,11.5 -11.5,11.5c-6.35127,0 -11.5,-5.14873 -11.5,-11.5z" fill="#b06500"/><path d="M402.5,342.5c0,-6.35127 5.14873,-11.5 11.5,-11.5c6.35127,0 11.5,5.14873 11.5,11.5c0,6.35127 -5.14873,11.5 -11.5,11.5c-6.35127,0 -11.5,-5.14873 -11.5,-11.5z" fill="#b06500"/><path d="M408.5,352.5c0,-6.35127 5.14873,-11.5 11.5,-11.5c6.35127,0 11.5,5.14873 11.5,11.5c0,6.35127 -5.14873,11.5 -11.5,11.5c-6.35127,0 -11.5,-5.14873 -11.5,-11.5z" fill="#b06500"/><path d="M443.5,350.5c0,-6.35127 5.14873,-11.5 11.5,-11.5c6.35127,0 11.5,5.14873 11.5,11.5c0,6.35127 -5.14873,11.5 -11.5,11.5c-6.35127,0 -11.5,-5.14873 -11.5,-11.5z" fill="#b06500"/><path d="M487.5,367.5c0,8.56041 -6.93959,15.5 -15.5,15.5c-8.56041,0 -15.5,-6.93959 -15.5,-15.5c0,-8.56041 6.93959,-15.5 15.5,-15.5c8.56041,0 15.5,6.93959 15.5,15.5z" data-paper-data="{&quot;index&quot;:null}" fill="#b06500"/><path d="M455.5,374.5c0,8.56041 -6.93959,15.5 -15.5,15.5c-8.56042,0 -15.5,-6.93959 -15.5,-15.5c0,-8.56041 6.93958,-15.5 15.5,-15.5c8.56041,0 15.5,6.93959 15.5,15.5z" data-paper-data="{&quot;index&quot;:null}" fill="#b06500"/><path d="M430.5,369.5c0,8.56041 -6.93958,15.5 -15.5,15.5c-8.56042,0 -15.5,-6.93959 -15.5,-15.5c0,-8.56041 6.93958,-15.5 15.5,-15.5c8.56042,0 15.5,6.93959 15.5,15.5z" data-paper-data="{&quot;index&quot;:null}" fill="#b06500"/><path d="M367.5,375.5c0,8.56041 -6.93958,15.5 -15.5,15.5c-8.56042,0 -15.5,-6.93959 -15.5,-15.5c0,-8.56041 6.93958,-15.5 15.5,-15.5c8.56042,0 15.5,6.93959 15.5,15.5z" data-paper-data="{&quot;index&quot;:null}" fill="#b07d00"/><path d="M395.5,372.5c0,8.56041 -6.93958,15.5 -15.5,15.5c-8.56042,0 -15.5,-6.93959 -15.5,-15.5c0,-8.56041 6.93958,-15.5 15.5,-15.5c8.56042,0 15.5,6.93959 15.5,15.5z" data-paper-data="{&quot;index&quot;:null}" fill="#b06500"/><path d="M337.5,364.5c0,8.56041 -6.93958,15.5 -15.5,15.5c-8.56042,0 -15.5,-6.93959 -15.5,-15.5c0,-8.56041 6.93958,-15.5 15.5,-15.5c8.56042,0 15.5,6.93959 15.5,15.5z" data-paper-data="{&quot;index&quot;:null}" fill="#b07d00"/><path d="M310.5,374.5c0,8.56041 -6.93958,15.5 -15.5,15.5c-8.56042,0 -15.5,-6.93959 -15.5,-15.5c0,-8.56041 6.93958,-15.5 15.5,-15.5c8.56042,0 15.5,6.93959 15.5,15.5z" data-paper-data="{&quot;index&quot;:null}" fill="#b06500"/><path d="M277.5,369.5c0,8.56041 -6.93958,15.5 -15.5,15.5c-8.56042,0 -15.5,-6.93959 -15.5,-15.5c0,-8.56041 6.93958,-15.5 15.5,-15.5c8.56042,0 15.5,6.93959 15.5,15.5z" data-paper-data="{&quot;index&quot;:null}" fill="#b06500"/><path d="M244.5,373.5c0,8.56041 -6.93958,15.5 -15.5,15.5c-8.56042,0 -15.5,-6.93959 -15.5,-15.5c0,-8.56041 6.93958,-15.5 15.5,-15.5c8.56042,0 15.5,6.93959 15.5,15.5z" data-paper-data="{&quot;index&quot;:null}" fill="#b07d00"/><path d="M211.5,357.5c0,8.56041 -6.93958,15.5 -15.5,15.5c-8.56042,0 -15.5,-6.93959 -15.5,-15.5c0,-8.56041 6.93958,-15.5 15.5,-15.5c8.56042,0 15.5,6.93959 15.5,15.5z" data-paper-data="{&quot;index&quot;:null}" fill="#b07d00"/><path d="M184.5,373.5c0,8.56041 -6.93958,15.5 -15.5,15.5c-8.56042,0 -15.5,-6.93959 -15.5,-15.5c0,-8.56041 6.93958,-15.5 15.5,-15.5c8.56042,0 15.5,6.93959 15.5,15.5z" data-paper-data="{&quot;index&quot;:null}" fill="#b07d00"/><path d="M151.5,363.5c0,8.56041 -6.93958,15.5 -15.5,15.5c-8.56042,0 -15.5,-6.93959 -15.5,-15.5c0,-8.56041 6.93958,-15.5 15.5,-15.5c8.56042,0 15.5,6.93959 15.5,15.5z" data-paper-data="{&quot;index&quot;:null}" fill="#b07d00"/><path d="M121.5,365.5c0,8.56041 -6.93958,15.5 -15.5,15.5c-8.56042,0 -15.5,-6.93959 -15.5,-15.5c0,-8.56041 6.93958,-15.5 15.5,-15.5c8.56042,0 15.5,6.93959 15.5,15.5z" data-paper-data="{&quot;index&quot;:null}" fill="#b07d00"/><path d="M91.5,361.5c0,8.56041 -6.93958,15.5 -15.5,15.5c-8.56042,0 -15.5,-6.93959 -15.5,-15.5c0,-8.56041 6.93958,-15.5 15.5,-15.5c8.56042,0 15.5,6.93959 15.5,15.5z" data-paper-data="{&quot;index&quot;:null}" fill="#b07d00"/><path d="M57.5,364.5c0,8.56041 -6.93958,15.5 -15.5,15.5c-8.56042,0 -15.5,-6.93959 -15.5,-15.5c0,-8.56041 6.93958,-15.5 15.5,-15.5c8.56042,0 15.5,6.93959 15.5,15.5z" data-paper-data="{&quot;index&quot;:null}" fill="#b07d00"/><path d="M26.5,373.5c0,8.56041 -6.93958,15.5 -15.5,15.5c-8.56042,0 -15.5,-6.93959 -15.5,-15.5c0,-8.56041 6.93958,-15.5 15.5,-15.5c8.56042,0 15.5,6.93959 15.5,15.5z" data-paper-data="{&quot;index&quot;:null}" fill="#b05300"/><path d="M472.5,375.5c0,6.35127 -5.14873,11.5 -11.5,11.5c-6.35127,0 -11.5,-5.14873 -11.5,-11.5c0,-6.35127 5.14873,-11.5 11.5,-11.5c6.35127,0 11.5,5.14873 11.5,11.5z" data-paper-data="{&quot;index&quot;:null}" fill="#b06500"/><path d="M447.5,362.5c0,6.35127 -5.14873,11.5 -11.5,11.5c-6.35127,0 -11.5,-5.14873 -11.5,-11.5c0,-6.35127 5.14873,-11.5 11.5,-11.5c6.35127,0 11.5,5.14873 11.5,11.5z" data-paper-data="{&quot;index&quot;:null}" fill="#b06500"/><path d="M409.5,361.5c0,6.35127 -5.14873,11.5 -11.5,11.5c-6.35127,0 -11.5,-5.14873 -11.5,-11.5c0,-6.35127 5.14873,-11.5 11.5,-11.5c6.35127,0 11.5,5.14873 11.5,11.5z" data-paper-data="{&quot;index&quot;:null}" fill="#b06500"/><path d="M369.5,361.5c0,6.35127 -5.14873,11.5 -11.5,11.5c-6.35127,0 -11.5,-5.14873 -11.5,-11.5c0,-6.35127 5.14873,-11.5 11.5,-11.5c6.35127,0 11.5,5.14873 11.5,11.5z" data-paper-data="{&quot;index&quot;:null}" fill="#b06500"/><path d="M346.5,368.5c0,6.35127 -5.14873,11.5 -11.5,11.5c-6.35127,0 -11.5,-5.14873 -11.5,-11.5c0,-6.35127 5.14873,-11.5 11.5,-11.5c6.35127,0 11.5,5.14873 11.5,11.5z" data-paper-data="{&quot;index&quot;:null}" fill="#b06500"/><path d="M312.5,356.5c0,6.35127 -5.14873,11.5 -11.5,11.5c-6.35127,0 -11.5,-5.14873 -11.5,-11.5c0,-6.35127 5.14873,-11.5 11.5,-11.5c6.35127,0 11.5,5.14873 11.5,11.5z" data-paper-data="{&quot;index&quot;:null}" fill="#b06500"/><path d="M283.5,355.5c0,6.35127 -5.14873,11.5 -11.5,11.5c-6.35127,0 -11.5,-5.14873 -11.5,-11.5c0,-6.35127 5.14873,-11.5 11.5,-11.5c6.35127,0 11.5,5.14873 11.5,11.5z" data-paper-data="{&quot;index&quot;:null}" fill="#b06500"/><path d="M254.5,359.5c0,6.35127 -5.14873,11.5 -11.5,11.5c-6.35127,0 -11.5,-5.14873 -11.5,-11.5c0,-6.35127 5.14873,-11.5 11.5,-11.5c6.35127,0 11.5,5.14873 11.5,11.5z" data-paper-data="{&quot;index&quot;:null}" fill="#b06500"/><path d="M227.5,370.5c0,6.35127 -5.14873,11.5 -11.5,11.5c-6.35127,0 -11.5,-5.14873 -11.5,-11.5c0,-6.35127 5.14873,-11.5 11.5,-11.5c6.35127,0 11.5,5.14873 11.5,11.5z" data-paper-data="{&quot;index&quot;:null}" fill="#b06500"/><path d="M170.5,359.5c0,6.35127 -5.14873,11.5 -11.5,11.5c-6.35127,0 -11.5,-5.14873 -11.5,-11.5c0,-6.35127 5.14873,-11.5 11.5,-11.5c6.35127,0 11.5,5.14873 11.5,11.5z" data-paper-data="{&quot;index&quot;:null}" fill="#b06500"/><path d="M124.5,364.5c0,6.35127 -5.14873,11.5 -11.5,11.5c-6.35127,0 -11.5,-5.14873 -11.5,-11.5c0,-6.35127 5.14873,-11.5 11.5,-11.5c6.35127,0 11.5,5.14873 11.5,11.5z" data-paper-data="{&quot;index&quot;:null}" fill="#b06500"/><path d="M98.5,369.5c0,6.35127 -5.14873,11.5 -11.5,11.5c-6.35127,0 -11.5,-5.14873 -11.5,-11.5c0,-6.35127 5.14873,-11.5 11.5,-11.5c6.35127,0 11.5,5.14873 11.5,11.5z" data-paper-data="{&quot;index&quot;:null}" fill="#b06500"/><path d="M68.5,358.5c0,6.35127 -5.14873,11.5 -11.5,11.5c-6.35127,0 -11.5,-5.14873 -11.5,-11.5c0,-6.35127 5.14873,-11.5 11.5,-11.5c6.35127,0 11.5,5.14873 11.5,11.5z" data-paper-data="{&quot;index&quot;:null}" fill="#b06500"/><path d="M36.5,360.5c0,6.35127 -5.14873,11.5 -11.5,11.5c-6.35127,0 -11.5,-5.14873 -11.5,-11.5c0,-6.35127 5.14873,-11.5 11.5,-11.5c6.35127,0 11.5,5.14873 11.5,11.5z" data-paper-data="{&quot;index&quot;:null}" fill="#b06500"/></g></g></svg>